G04 #@! TF.GenerationSoftware,KiCad,Pcbnew,5.0.2-bee76a0~70~ubuntu18.04.1*
G04 #@! TF.CreationDate,2019-04-11T17:57:36-07:00*
G04 #@! TF.ProjectId,BuckBoostInverter,4275636b-426f-46f7-9374-496e76657274,rev?*
G04 #@! TF.SameCoordinates,Original*
G04 #@! TF.FileFunction,Paste,Top*
G04 #@! TF.FilePolarity,Positive*
%FSLAX46Y46*%
G04 Gerber Fmt 4.6, Leading zero omitted, Abs format (unit mm)*
G04 Created by KiCad (PCBNEW 5.0.2-bee76a0~70~ubuntu18.04.1) date Thu 11 Apr 2019 05:57:36 PM PDT*
%MOMM*%
%LPD*%
G01*
G04 APERTURE LIST*
%ADD10R,0.500000X0.630000*%
%ADD11R,0.738000X0.570000*%
%ADD12R,5.000000X5.000000*%
%ADD13R,6.740000X6.230000*%
%ADD14R,1.524000X2.280000*%
%ADD15C,0.100000*%
%ADD16C,0.950000*%
%ADD17C,1.150000*%
%ADD18C,0.590000*%
%ADD19R,5.400000X2.900000*%
%ADD20C,1.425000*%
%ADD21R,1.050000X0.450000*%
%ADD22R,0.850000X0.850000*%
%ADD23R,0.850000X0.800000*%
%ADD24R,0.800000X0.250000*%
%ADD25R,0.250000X0.800000*%
G04 APERTURE END LIST*
D10*
G04 #@! TO.C,Q1*
X129020000Y-85700000D03*
X129660000Y-85700000D03*
X130320000Y-85700000D03*
X130960000Y-85700000D03*
X130960000Y-82820000D03*
X130320000Y-82820000D03*
X129660000Y-82820000D03*
X129020000Y-82820000D03*
D11*
X130600000Y-83400000D03*
X129380000Y-83400000D03*
X130600000Y-84350000D03*
X129380000Y-84350000D03*
G04 #@! TD*
D12*
G04 #@! TO.C,J1*
X84800000Y-74600000D03*
X74800000Y-74600000D03*
G04 #@! TD*
G04 #@! TO.C,J2*
X164600000Y-116400000D03*
X154600000Y-116400000D03*
G04 #@! TD*
D13*
G04 #@! TO.C,D1*
X156600000Y-84200000D03*
D14*
X158980000Y-90345000D03*
X154220000Y-90345000D03*
G04 #@! TD*
D15*
G04 #@! TO.C,C1*
G36*
X101660779Y-84276144D02*
X101683834Y-84279563D01*
X101706443Y-84285227D01*
X101728387Y-84293079D01*
X101749457Y-84303044D01*
X101769448Y-84315026D01*
X101788168Y-84328910D01*
X101805438Y-84344562D01*
X101821090Y-84361832D01*
X101834974Y-84380552D01*
X101846956Y-84400543D01*
X101856921Y-84421613D01*
X101864773Y-84443557D01*
X101870437Y-84466166D01*
X101873856Y-84489221D01*
X101875000Y-84512500D01*
X101875000Y-85087500D01*
X101873856Y-85110779D01*
X101870437Y-85133834D01*
X101864773Y-85156443D01*
X101856921Y-85178387D01*
X101846956Y-85199457D01*
X101834974Y-85219448D01*
X101821090Y-85238168D01*
X101805438Y-85255438D01*
X101788168Y-85271090D01*
X101769448Y-85284974D01*
X101749457Y-85296956D01*
X101728387Y-85306921D01*
X101706443Y-85314773D01*
X101683834Y-85320437D01*
X101660779Y-85323856D01*
X101637500Y-85325000D01*
X101162500Y-85325000D01*
X101139221Y-85323856D01*
X101116166Y-85320437D01*
X101093557Y-85314773D01*
X101071613Y-85306921D01*
X101050543Y-85296956D01*
X101030552Y-85284974D01*
X101011832Y-85271090D01*
X100994562Y-85255438D01*
X100978910Y-85238168D01*
X100965026Y-85219448D01*
X100953044Y-85199457D01*
X100943079Y-85178387D01*
X100935227Y-85156443D01*
X100929563Y-85133834D01*
X100926144Y-85110779D01*
X100925000Y-85087500D01*
X100925000Y-84512500D01*
X100926144Y-84489221D01*
X100929563Y-84466166D01*
X100935227Y-84443557D01*
X100943079Y-84421613D01*
X100953044Y-84400543D01*
X100965026Y-84380552D01*
X100978910Y-84361832D01*
X100994562Y-84344562D01*
X101011832Y-84328910D01*
X101030552Y-84315026D01*
X101050543Y-84303044D01*
X101071613Y-84293079D01*
X101093557Y-84285227D01*
X101116166Y-84279563D01*
X101139221Y-84276144D01*
X101162500Y-84275000D01*
X101637500Y-84275000D01*
X101660779Y-84276144D01*
X101660779Y-84276144D01*
G37*
D16*
X101400000Y-84800000D03*
D15*
G36*
X101660779Y-82526144D02*
X101683834Y-82529563D01*
X101706443Y-82535227D01*
X101728387Y-82543079D01*
X101749457Y-82553044D01*
X101769448Y-82565026D01*
X101788168Y-82578910D01*
X101805438Y-82594562D01*
X101821090Y-82611832D01*
X101834974Y-82630552D01*
X101846956Y-82650543D01*
X101856921Y-82671613D01*
X101864773Y-82693557D01*
X101870437Y-82716166D01*
X101873856Y-82739221D01*
X101875000Y-82762500D01*
X101875000Y-83337500D01*
X101873856Y-83360779D01*
X101870437Y-83383834D01*
X101864773Y-83406443D01*
X101856921Y-83428387D01*
X101846956Y-83449457D01*
X101834974Y-83469448D01*
X101821090Y-83488168D01*
X101805438Y-83505438D01*
X101788168Y-83521090D01*
X101769448Y-83534974D01*
X101749457Y-83546956D01*
X101728387Y-83556921D01*
X101706443Y-83564773D01*
X101683834Y-83570437D01*
X101660779Y-83573856D01*
X101637500Y-83575000D01*
X101162500Y-83575000D01*
X101139221Y-83573856D01*
X101116166Y-83570437D01*
X101093557Y-83564773D01*
X101071613Y-83556921D01*
X101050543Y-83546956D01*
X101030552Y-83534974D01*
X101011832Y-83521090D01*
X100994562Y-83505438D01*
X100978910Y-83488168D01*
X100965026Y-83469448D01*
X100953044Y-83449457D01*
X100943079Y-83428387D01*
X100935227Y-83406443D01*
X100929563Y-83383834D01*
X100926144Y-83360779D01*
X100925000Y-83337500D01*
X100925000Y-82762500D01*
X100926144Y-82739221D01*
X100929563Y-82716166D01*
X100935227Y-82693557D01*
X100943079Y-82671613D01*
X100953044Y-82650543D01*
X100965026Y-82630552D01*
X100978910Y-82611832D01*
X100994562Y-82594562D01*
X101011832Y-82578910D01*
X101030552Y-82565026D01*
X101050543Y-82553044D01*
X101071613Y-82543079D01*
X101093557Y-82535227D01*
X101116166Y-82529563D01*
X101139221Y-82526144D01*
X101162500Y-82525000D01*
X101637500Y-82525000D01*
X101660779Y-82526144D01*
X101660779Y-82526144D01*
G37*
D16*
X101400000Y-83050000D03*
G04 #@! TD*
D15*
G04 #@! TO.C,C2*
G36*
X97674505Y-82226204D02*
X97698773Y-82229804D01*
X97722572Y-82235765D01*
X97745671Y-82244030D01*
X97767850Y-82254520D01*
X97788893Y-82267132D01*
X97808599Y-82281747D01*
X97826777Y-82298223D01*
X97843253Y-82316401D01*
X97857868Y-82336107D01*
X97870480Y-82357150D01*
X97880970Y-82379329D01*
X97889235Y-82402428D01*
X97895196Y-82426227D01*
X97898796Y-82450495D01*
X97900000Y-82474999D01*
X97900000Y-83125001D01*
X97898796Y-83149505D01*
X97895196Y-83173773D01*
X97889235Y-83197572D01*
X97880970Y-83220671D01*
X97870480Y-83242850D01*
X97857868Y-83263893D01*
X97843253Y-83283599D01*
X97826777Y-83301777D01*
X97808599Y-83318253D01*
X97788893Y-83332868D01*
X97767850Y-83345480D01*
X97745671Y-83355970D01*
X97722572Y-83364235D01*
X97698773Y-83370196D01*
X97674505Y-83373796D01*
X97650001Y-83375000D01*
X96749999Y-83375000D01*
X96725495Y-83373796D01*
X96701227Y-83370196D01*
X96677428Y-83364235D01*
X96654329Y-83355970D01*
X96632150Y-83345480D01*
X96611107Y-83332868D01*
X96591401Y-83318253D01*
X96573223Y-83301777D01*
X96556747Y-83283599D01*
X96542132Y-83263893D01*
X96529520Y-83242850D01*
X96519030Y-83220671D01*
X96510765Y-83197572D01*
X96504804Y-83173773D01*
X96501204Y-83149505D01*
X96500000Y-83125001D01*
X96500000Y-82474999D01*
X96501204Y-82450495D01*
X96504804Y-82426227D01*
X96510765Y-82402428D01*
X96519030Y-82379329D01*
X96529520Y-82357150D01*
X96542132Y-82336107D01*
X96556747Y-82316401D01*
X96573223Y-82298223D01*
X96591401Y-82281747D01*
X96611107Y-82267132D01*
X96632150Y-82254520D01*
X96654329Y-82244030D01*
X96677428Y-82235765D01*
X96701227Y-82229804D01*
X96725495Y-82226204D01*
X96749999Y-82225000D01*
X97650001Y-82225000D01*
X97674505Y-82226204D01*
X97674505Y-82226204D01*
G37*
D17*
X97200000Y-82800000D03*
D15*
G36*
X97674505Y-84276204D02*
X97698773Y-84279804D01*
X97722572Y-84285765D01*
X97745671Y-84294030D01*
X97767850Y-84304520D01*
X97788893Y-84317132D01*
X97808599Y-84331747D01*
X97826777Y-84348223D01*
X97843253Y-84366401D01*
X97857868Y-84386107D01*
X97870480Y-84407150D01*
X97880970Y-84429329D01*
X97889235Y-84452428D01*
X97895196Y-84476227D01*
X97898796Y-84500495D01*
X97900000Y-84524999D01*
X97900000Y-85175001D01*
X97898796Y-85199505D01*
X97895196Y-85223773D01*
X97889235Y-85247572D01*
X97880970Y-85270671D01*
X97870480Y-85292850D01*
X97857868Y-85313893D01*
X97843253Y-85333599D01*
X97826777Y-85351777D01*
X97808599Y-85368253D01*
X97788893Y-85382868D01*
X97767850Y-85395480D01*
X97745671Y-85405970D01*
X97722572Y-85414235D01*
X97698773Y-85420196D01*
X97674505Y-85423796D01*
X97650001Y-85425000D01*
X96749999Y-85425000D01*
X96725495Y-85423796D01*
X96701227Y-85420196D01*
X96677428Y-85414235D01*
X96654329Y-85405970D01*
X96632150Y-85395480D01*
X96611107Y-85382868D01*
X96591401Y-85368253D01*
X96573223Y-85351777D01*
X96556747Y-85333599D01*
X96542132Y-85313893D01*
X96529520Y-85292850D01*
X96519030Y-85270671D01*
X96510765Y-85247572D01*
X96504804Y-85223773D01*
X96501204Y-85199505D01*
X96500000Y-85175001D01*
X96500000Y-84524999D01*
X96501204Y-84500495D01*
X96504804Y-84476227D01*
X96510765Y-84452428D01*
X96519030Y-84429329D01*
X96529520Y-84407150D01*
X96542132Y-84386107D01*
X96556747Y-84366401D01*
X96573223Y-84348223D01*
X96591401Y-84331747D01*
X96611107Y-84317132D01*
X96632150Y-84304520D01*
X96654329Y-84294030D01*
X96677428Y-84285765D01*
X96701227Y-84279804D01*
X96725495Y-84276204D01*
X96749999Y-84275000D01*
X97650001Y-84275000D01*
X97674505Y-84276204D01*
X97674505Y-84276204D01*
G37*
D17*
X97200000Y-84850000D03*
G04 #@! TD*
D15*
G04 #@! TO.C,C3*
G36*
X85186958Y-90305710D02*
X85201276Y-90307834D01*
X85215317Y-90311351D01*
X85228946Y-90316228D01*
X85242031Y-90322417D01*
X85254447Y-90329858D01*
X85266073Y-90338481D01*
X85276798Y-90348202D01*
X85286519Y-90358927D01*
X85295142Y-90370553D01*
X85302583Y-90382969D01*
X85308772Y-90396054D01*
X85313649Y-90409683D01*
X85317166Y-90423724D01*
X85319290Y-90438042D01*
X85320000Y-90452500D01*
X85320000Y-90747500D01*
X85319290Y-90761958D01*
X85317166Y-90776276D01*
X85313649Y-90790317D01*
X85308772Y-90803946D01*
X85302583Y-90817031D01*
X85295142Y-90829447D01*
X85286519Y-90841073D01*
X85276798Y-90851798D01*
X85266073Y-90861519D01*
X85254447Y-90870142D01*
X85242031Y-90877583D01*
X85228946Y-90883772D01*
X85215317Y-90888649D01*
X85201276Y-90892166D01*
X85186958Y-90894290D01*
X85172500Y-90895000D01*
X84827500Y-90895000D01*
X84813042Y-90894290D01*
X84798724Y-90892166D01*
X84784683Y-90888649D01*
X84771054Y-90883772D01*
X84757969Y-90877583D01*
X84745553Y-90870142D01*
X84733927Y-90861519D01*
X84723202Y-90851798D01*
X84713481Y-90841073D01*
X84704858Y-90829447D01*
X84697417Y-90817031D01*
X84691228Y-90803946D01*
X84686351Y-90790317D01*
X84682834Y-90776276D01*
X84680710Y-90761958D01*
X84680000Y-90747500D01*
X84680000Y-90452500D01*
X84680710Y-90438042D01*
X84682834Y-90423724D01*
X84686351Y-90409683D01*
X84691228Y-90396054D01*
X84697417Y-90382969D01*
X84704858Y-90370553D01*
X84713481Y-90358927D01*
X84723202Y-90348202D01*
X84733927Y-90338481D01*
X84745553Y-90329858D01*
X84757969Y-90322417D01*
X84771054Y-90316228D01*
X84784683Y-90311351D01*
X84798724Y-90307834D01*
X84813042Y-90305710D01*
X84827500Y-90305000D01*
X85172500Y-90305000D01*
X85186958Y-90305710D01*
X85186958Y-90305710D01*
G37*
D18*
X85000000Y-90600000D03*
D15*
G36*
X85186958Y-89335710D02*
X85201276Y-89337834D01*
X85215317Y-89341351D01*
X85228946Y-89346228D01*
X85242031Y-89352417D01*
X85254447Y-89359858D01*
X85266073Y-89368481D01*
X85276798Y-89378202D01*
X85286519Y-89388927D01*
X85295142Y-89400553D01*
X85302583Y-89412969D01*
X85308772Y-89426054D01*
X85313649Y-89439683D01*
X85317166Y-89453724D01*
X85319290Y-89468042D01*
X85320000Y-89482500D01*
X85320000Y-89777500D01*
X85319290Y-89791958D01*
X85317166Y-89806276D01*
X85313649Y-89820317D01*
X85308772Y-89833946D01*
X85302583Y-89847031D01*
X85295142Y-89859447D01*
X85286519Y-89871073D01*
X85276798Y-89881798D01*
X85266073Y-89891519D01*
X85254447Y-89900142D01*
X85242031Y-89907583D01*
X85228946Y-89913772D01*
X85215317Y-89918649D01*
X85201276Y-89922166D01*
X85186958Y-89924290D01*
X85172500Y-89925000D01*
X84827500Y-89925000D01*
X84813042Y-89924290D01*
X84798724Y-89922166D01*
X84784683Y-89918649D01*
X84771054Y-89913772D01*
X84757969Y-89907583D01*
X84745553Y-89900142D01*
X84733927Y-89891519D01*
X84723202Y-89881798D01*
X84713481Y-89871073D01*
X84704858Y-89859447D01*
X84697417Y-89847031D01*
X84691228Y-89833946D01*
X84686351Y-89820317D01*
X84682834Y-89806276D01*
X84680710Y-89791958D01*
X84680000Y-89777500D01*
X84680000Y-89482500D01*
X84680710Y-89468042D01*
X84682834Y-89453724D01*
X84686351Y-89439683D01*
X84691228Y-89426054D01*
X84697417Y-89412969D01*
X84704858Y-89400553D01*
X84713481Y-89388927D01*
X84723202Y-89378202D01*
X84733927Y-89368481D01*
X84745553Y-89359858D01*
X84757969Y-89352417D01*
X84771054Y-89346228D01*
X84784683Y-89341351D01*
X84798724Y-89337834D01*
X84813042Y-89335710D01*
X84827500Y-89335000D01*
X85172500Y-89335000D01*
X85186958Y-89335710D01*
X85186958Y-89335710D01*
G37*
D18*
X85000000Y-89630000D03*
G04 #@! TD*
D15*
G04 #@! TO.C,C4*
G36*
X114586958Y-90305710D02*
X114601276Y-90307834D01*
X114615317Y-90311351D01*
X114628946Y-90316228D01*
X114642031Y-90322417D01*
X114654447Y-90329858D01*
X114666073Y-90338481D01*
X114676798Y-90348202D01*
X114686519Y-90358927D01*
X114695142Y-90370553D01*
X114702583Y-90382969D01*
X114708772Y-90396054D01*
X114713649Y-90409683D01*
X114717166Y-90423724D01*
X114719290Y-90438042D01*
X114720000Y-90452500D01*
X114720000Y-90747500D01*
X114719290Y-90761958D01*
X114717166Y-90776276D01*
X114713649Y-90790317D01*
X114708772Y-90803946D01*
X114702583Y-90817031D01*
X114695142Y-90829447D01*
X114686519Y-90841073D01*
X114676798Y-90851798D01*
X114666073Y-90861519D01*
X114654447Y-90870142D01*
X114642031Y-90877583D01*
X114628946Y-90883772D01*
X114615317Y-90888649D01*
X114601276Y-90892166D01*
X114586958Y-90894290D01*
X114572500Y-90895000D01*
X114227500Y-90895000D01*
X114213042Y-90894290D01*
X114198724Y-90892166D01*
X114184683Y-90888649D01*
X114171054Y-90883772D01*
X114157969Y-90877583D01*
X114145553Y-90870142D01*
X114133927Y-90861519D01*
X114123202Y-90851798D01*
X114113481Y-90841073D01*
X114104858Y-90829447D01*
X114097417Y-90817031D01*
X114091228Y-90803946D01*
X114086351Y-90790317D01*
X114082834Y-90776276D01*
X114080710Y-90761958D01*
X114080000Y-90747500D01*
X114080000Y-90452500D01*
X114080710Y-90438042D01*
X114082834Y-90423724D01*
X114086351Y-90409683D01*
X114091228Y-90396054D01*
X114097417Y-90382969D01*
X114104858Y-90370553D01*
X114113481Y-90358927D01*
X114123202Y-90348202D01*
X114133927Y-90338481D01*
X114145553Y-90329858D01*
X114157969Y-90322417D01*
X114171054Y-90316228D01*
X114184683Y-90311351D01*
X114198724Y-90307834D01*
X114213042Y-90305710D01*
X114227500Y-90305000D01*
X114572500Y-90305000D01*
X114586958Y-90305710D01*
X114586958Y-90305710D01*
G37*
D18*
X114400000Y-90600000D03*
D15*
G36*
X114586958Y-91275710D02*
X114601276Y-91277834D01*
X114615317Y-91281351D01*
X114628946Y-91286228D01*
X114642031Y-91292417D01*
X114654447Y-91299858D01*
X114666073Y-91308481D01*
X114676798Y-91318202D01*
X114686519Y-91328927D01*
X114695142Y-91340553D01*
X114702583Y-91352969D01*
X114708772Y-91366054D01*
X114713649Y-91379683D01*
X114717166Y-91393724D01*
X114719290Y-91408042D01*
X114720000Y-91422500D01*
X114720000Y-91717500D01*
X114719290Y-91731958D01*
X114717166Y-91746276D01*
X114713649Y-91760317D01*
X114708772Y-91773946D01*
X114702583Y-91787031D01*
X114695142Y-91799447D01*
X114686519Y-91811073D01*
X114676798Y-91821798D01*
X114666073Y-91831519D01*
X114654447Y-91840142D01*
X114642031Y-91847583D01*
X114628946Y-91853772D01*
X114615317Y-91858649D01*
X114601276Y-91862166D01*
X114586958Y-91864290D01*
X114572500Y-91865000D01*
X114227500Y-91865000D01*
X114213042Y-91864290D01*
X114198724Y-91862166D01*
X114184683Y-91858649D01*
X114171054Y-91853772D01*
X114157969Y-91847583D01*
X114145553Y-91840142D01*
X114133927Y-91831519D01*
X114123202Y-91821798D01*
X114113481Y-91811073D01*
X114104858Y-91799447D01*
X114097417Y-91787031D01*
X114091228Y-91773946D01*
X114086351Y-91760317D01*
X114082834Y-91746276D01*
X114080710Y-91731958D01*
X114080000Y-91717500D01*
X114080000Y-91422500D01*
X114080710Y-91408042D01*
X114082834Y-91393724D01*
X114086351Y-91379683D01*
X114091228Y-91366054D01*
X114097417Y-91352969D01*
X114104858Y-91340553D01*
X114113481Y-91328927D01*
X114123202Y-91318202D01*
X114133927Y-91308481D01*
X114145553Y-91299858D01*
X114157969Y-91292417D01*
X114171054Y-91286228D01*
X114184683Y-91281351D01*
X114198724Y-91277834D01*
X114213042Y-91275710D01*
X114227500Y-91275000D01*
X114572500Y-91275000D01*
X114586958Y-91275710D01*
X114586958Y-91275710D01*
G37*
D18*
X114400000Y-91570000D03*
G04 #@! TD*
D15*
G04 #@! TO.C,C5*
G36*
X87660779Y-97476144D02*
X87683834Y-97479563D01*
X87706443Y-97485227D01*
X87728387Y-97493079D01*
X87749457Y-97503044D01*
X87769448Y-97515026D01*
X87788168Y-97528910D01*
X87805438Y-97544562D01*
X87821090Y-97561832D01*
X87834974Y-97580552D01*
X87846956Y-97600543D01*
X87856921Y-97621613D01*
X87864773Y-97643557D01*
X87870437Y-97666166D01*
X87873856Y-97689221D01*
X87875000Y-97712500D01*
X87875000Y-98287500D01*
X87873856Y-98310779D01*
X87870437Y-98333834D01*
X87864773Y-98356443D01*
X87856921Y-98378387D01*
X87846956Y-98399457D01*
X87834974Y-98419448D01*
X87821090Y-98438168D01*
X87805438Y-98455438D01*
X87788168Y-98471090D01*
X87769448Y-98484974D01*
X87749457Y-98496956D01*
X87728387Y-98506921D01*
X87706443Y-98514773D01*
X87683834Y-98520437D01*
X87660779Y-98523856D01*
X87637500Y-98525000D01*
X87162500Y-98525000D01*
X87139221Y-98523856D01*
X87116166Y-98520437D01*
X87093557Y-98514773D01*
X87071613Y-98506921D01*
X87050543Y-98496956D01*
X87030552Y-98484974D01*
X87011832Y-98471090D01*
X86994562Y-98455438D01*
X86978910Y-98438168D01*
X86965026Y-98419448D01*
X86953044Y-98399457D01*
X86943079Y-98378387D01*
X86935227Y-98356443D01*
X86929563Y-98333834D01*
X86926144Y-98310779D01*
X86925000Y-98287500D01*
X86925000Y-97712500D01*
X86926144Y-97689221D01*
X86929563Y-97666166D01*
X86935227Y-97643557D01*
X86943079Y-97621613D01*
X86953044Y-97600543D01*
X86965026Y-97580552D01*
X86978910Y-97561832D01*
X86994562Y-97544562D01*
X87011832Y-97528910D01*
X87030552Y-97515026D01*
X87050543Y-97503044D01*
X87071613Y-97493079D01*
X87093557Y-97485227D01*
X87116166Y-97479563D01*
X87139221Y-97476144D01*
X87162500Y-97475000D01*
X87637500Y-97475000D01*
X87660779Y-97476144D01*
X87660779Y-97476144D01*
G37*
D16*
X87400000Y-98000000D03*
D15*
G36*
X87660779Y-95726144D02*
X87683834Y-95729563D01*
X87706443Y-95735227D01*
X87728387Y-95743079D01*
X87749457Y-95753044D01*
X87769448Y-95765026D01*
X87788168Y-95778910D01*
X87805438Y-95794562D01*
X87821090Y-95811832D01*
X87834974Y-95830552D01*
X87846956Y-95850543D01*
X87856921Y-95871613D01*
X87864773Y-95893557D01*
X87870437Y-95916166D01*
X87873856Y-95939221D01*
X87875000Y-95962500D01*
X87875000Y-96537500D01*
X87873856Y-96560779D01*
X87870437Y-96583834D01*
X87864773Y-96606443D01*
X87856921Y-96628387D01*
X87846956Y-96649457D01*
X87834974Y-96669448D01*
X87821090Y-96688168D01*
X87805438Y-96705438D01*
X87788168Y-96721090D01*
X87769448Y-96734974D01*
X87749457Y-96746956D01*
X87728387Y-96756921D01*
X87706443Y-96764773D01*
X87683834Y-96770437D01*
X87660779Y-96773856D01*
X87637500Y-96775000D01*
X87162500Y-96775000D01*
X87139221Y-96773856D01*
X87116166Y-96770437D01*
X87093557Y-96764773D01*
X87071613Y-96756921D01*
X87050543Y-96746956D01*
X87030552Y-96734974D01*
X87011832Y-96721090D01*
X86994562Y-96705438D01*
X86978910Y-96688168D01*
X86965026Y-96669448D01*
X86953044Y-96649457D01*
X86943079Y-96628387D01*
X86935227Y-96606443D01*
X86929563Y-96583834D01*
X86926144Y-96560779D01*
X86925000Y-96537500D01*
X86925000Y-95962500D01*
X86926144Y-95939221D01*
X86929563Y-95916166D01*
X86935227Y-95893557D01*
X86943079Y-95871613D01*
X86953044Y-95850543D01*
X86965026Y-95830552D01*
X86978910Y-95811832D01*
X86994562Y-95794562D01*
X87011832Y-95778910D01*
X87030552Y-95765026D01*
X87050543Y-95753044D01*
X87071613Y-95743079D01*
X87093557Y-95735227D01*
X87116166Y-95729563D01*
X87139221Y-95726144D01*
X87162500Y-95725000D01*
X87637500Y-95725000D01*
X87660779Y-95726144D01*
X87660779Y-95726144D01*
G37*
D16*
X87400000Y-96250000D03*
G04 #@! TD*
D15*
G04 #@! TO.C,C6*
G36*
X83531958Y-97280710D02*
X83546276Y-97282834D01*
X83560317Y-97286351D01*
X83573946Y-97291228D01*
X83587031Y-97297417D01*
X83599447Y-97304858D01*
X83611073Y-97313481D01*
X83621798Y-97323202D01*
X83631519Y-97333927D01*
X83640142Y-97345553D01*
X83647583Y-97357969D01*
X83653772Y-97371054D01*
X83658649Y-97384683D01*
X83662166Y-97398724D01*
X83664290Y-97413042D01*
X83665000Y-97427500D01*
X83665000Y-97772500D01*
X83664290Y-97786958D01*
X83662166Y-97801276D01*
X83658649Y-97815317D01*
X83653772Y-97828946D01*
X83647583Y-97842031D01*
X83640142Y-97854447D01*
X83631519Y-97866073D01*
X83621798Y-97876798D01*
X83611073Y-97886519D01*
X83599447Y-97895142D01*
X83587031Y-97902583D01*
X83573946Y-97908772D01*
X83560317Y-97913649D01*
X83546276Y-97917166D01*
X83531958Y-97919290D01*
X83517500Y-97920000D01*
X83222500Y-97920000D01*
X83208042Y-97919290D01*
X83193724Y-97917166D01*
X83179683Y-97913649D01*
X83166054Y-97908772D01*
X83152969Y-97902583D01*
X83140553Y-97895142D01*
X83128927Y-97886519D01*
X83118202Y-97876798D01*
X83108481Y-97866073D01*
X83099858Y-97854447D01*
X83092417Y-97842031D01*
X83086228Y-97828946D01*
X83081351Y-97815317D01*
X83077834Y-97801276D01*
X83075710Y-97786958D01*
X83075000Y-97772500D01*
X83075000Y-97427500D01*
X83075710Y-97413042D01*
X83077834Y-97398724D01*
X83081351Y-97384683D01*
X83086228Y-97371054D01*
X83092417Y-97357969D01*
X83099858Y-97345553D01*
X83108481Y-97333927D01*
X83118202Y-97323202D01*
X83128927Y-97313481D01*
X83140553Y-97304858D01*
X83152969Y-97297417D01*
X83166054Y-97291228D01*
X83179683Y-97286351D01*
X83193724Y-97282834D01*
X83208042Y-97280710D01*
X83222500Y-97280000D01*
X83517500Y-97280000D01*
X83531958Y-97280710D01*
X83531958Y-97280710D01*
G37*
D18*
X83370000Y-97600000D03*
D15*
G36*
X82561958Y-97280710D02*
X82576276Y-97282834D01*
X82590317Y-97286351D01*
X82603946Y-97291228D01*
X82617031Y-97297417D01*
X82629447Y-97304858D01*
X82641073Y-97313481D01*
X82651798Y-97323202D01*
X82661519Y-97333927D01*
X82670142Y-97345553D01*
X82677583Y-97357969D01*
X82683772Y-97371054D01*
X82688649Y-97384683D01*
X82692166Y-97398724D01*
X82694290Y-97413042D01*
X82695000Y-97427500D01*
X82695000Y-97772500D01*
X82694290Y-97786958D01*
X82692166Y-97801276D01*
X82688649Y-97815317D01*
X82683772Y-97828946D01*
X82677583Y-97842031D01*
X82670142Y-97854447D01*
X82661519Y-97866073D01*
X82651798Y-97876798D01*
X82641073Y-97886519D01*
X82629447Y-97895142D01*
X82617031Y-97902583D01*
X82603946Y-97908772D01*
X82590317Y-97913649D01*
X82576276Y-97917166D01*
X82561958Y-97919290D01*
X82547500Y-97920000D01*
X82252500Y-97920000D01*
X82238042Y-97919290D01*
X82223724Y-97917166D01*
X82209683Y-97913649D01*
X82196054Y-97908772D01*
X82182969Y-97902583D01*
X82170553Y-97895142D01*
X82158927Y-97886519D01*
X82148202Y-97876798D01*
X82138481Y-97866073D01*
X82129858Y-97854447D01*
X82122417Y-97842031D01*
X82116228Y-97828946D01*
X82111351Y-97815317D01*
X82107834Y-97801276D01*
X82105710Y-97786958D01*
X82105000Y-97772500D01*
X82105000Y-97427500D01*
X82105710Y-97413042D01*
X82107834Y-97398724D01*
X82111351Y-97384683D01*
X82116228Y-97371054D01*
X82122417Y-97357969D01*
X82129858Y-97345553D01*
X82138481Y-97333927D01*
X82148202Y-97323202D01*
X82158927Y-97313481D01*
X82170553Y-97304858D01*
X82182969Y-97297417D01*
X82196054Y-97291228D01*
X82209683Y-97286351D01*
X82223724Y-97282834D01*
X82238042Y-97280710D01*
X82252500Y-97280000D01*
X82547500Y-97280000D01*
X82561958Y-97280710D01*
X82561958Y-97280710D01*
G37*
D18*
X82400000Y-97600000D03*
G04 #@! TD*
D15*
G04 #@! TO.C,C7*
G36*
X92586958Y-89220710D02*
X92601276Y-89222834D01*
X92615317Y-89226351D01*
X92628946Y-89231228D01*
X92642031Y-89237417D01*
X92654447Y-89244858D01*
X92666073Y-89253481D01*
X92676798Y-89263202D01*
X92686519Y-89273927D01*
X92695142Y-89285553D01*
X92702583Y-89297969D01*
X92708772Y-89311054D01*
X92713649Y-89324683D01*
X92717166Y-89338724D01*
X92719290Y-89353042D01*
X92720000Y-89367500D01*
X92720000Y-89662500D01*
X92719290Y-89676958D01*
X92717166Y-89691276D01*
X92713649Y-89705317D01*
X92708772Y-89718946D01*
X92702583Y-89732031D01*
X92695142Y-89744447D01*
X92686519Y-89756073D01*
X92676798Y-89766798D01*
X92666073Y-89776519D01*
X92654447Y-89785142D01*
X92642031Y-89792583D01*
X92628946Y-89798772D01*
X92615317Y-89803649D01*
X92601276Y-89807166D01*
X92586958Y-89809290D01*
X92572500Y-89810000D01*
X92227500Y-89810000D01*
X92213042Y-89809290D01*
X92198724Y-89807166D01*
X92184683Y-89803649D01*
X92171054Y-89798772D01*
X92157969Y-89792583D01*
X92145553Y-89785142D01*
X92133927Y-89776519D01*
X92123202Y-89766798D01*
X92113481Y-89756073D01*
X92104858Y-89744447D01*
X92097417Y-89732031D01*
X92091228Y-89718946D01*
X92086351Y-89705317D01*
X92082834Y-89691276D01*
X92080710Y-89676958D01*
X92080000Y-89662500D01*
X92080000Y-89367500D01*
X92080710Y-89353042D01*
X92082834Y-89338724D01*
X92086351Y-89324683D01*
X92091228Y-89311054D01*
X92097417Y-89297969D01*
X92104858Y-89285553D01*
X92113481Y-89273927D01*
X92123202Y-89263202D01*
X92133927Y-89253481D01*
X92145553Y-89244858D01*
X92157969Y-89237417D01*
X92171054Y-89231228D01*
X92184683Y-89226351D01*
X92198724Y-89222834D01*
X92213042Y-89220710D01*
X92227500Y-89220000D01*
X92572500Y-89220000D01*
X92586958Y-89220710D01*
X92586958Y-89220710D01*
G37*
D18*
X92400000Y-89515000D03*
D15*
G36*
X92586958Y-90190710D02*
X92601276Y-90192834D01*
X92615317Y-90196351D01*
X92628946Y-90201228D01*
X92642031Y-90207417D01*
X92654447Y-90214858D01*
X92666073Y-90223481D01*
X92676798Y-90233202D01*
X92686519Y-90243927D01*
X92695142Y-90255553D01*
X92702583Y-90267969D01*
X92708772Y-90281054D01*
X92713649Y-90294683D01*
X92717166Y-90308724D01*
X92719290Y-90323042D01*
X92720000Y-90337500D01*
X92720000Y-90632500D01*
X92719290Y-90646958D01*
X92717166Y-90661276D01*
X92713649Y-90675317D01*
X92708772Y-90688946D01*
X92702583Y-90702031D01*
X92695142Y-90714447D01*
X92686519Y-90726073D01*
X92676798Y-90736798D01*
X92666073Y-90746519D01*
X92654447Y-90755142D01*
X92642031Y-90762583D01*
X92628946Y-90768772D01*
X92615317Y-90773649D01*
X92601276Y-90777166D01*
X92586958Y-90779290D01*
X92572500Y-90780000D01*
X92227500Y-90780000D01*
X92213042Y-90779290D01*
X92198724Y-90777166D01*
X92184683Y-90773649D01*
X92171054Y-90768772D01*
X92157969Y-90762583D01*
X92145553Y-90755142D01*
X92133927Y-90746519D01*
X92123202Y-90736798D01*
X92113481Y-90726073D01*
X92104858Y-90714447D01*
X92097417Y-90702031D01*
X92091228Y-90688946D01*
X92086351Y-90675317D01*
X92082834Y-90661276D01*
X92080710Y-90646958D01*
X92080000Y-90632500D01*
X92080000Y-90337500D01*
X92080710Y-90323042D01*
X92082834Y-90308724D01*
X92086351Y-90294683D01*
X92091228Y-90281054D01*
X92097417Y-90267969D01*
X92104858Y-90255553D01*
X92113481Y-90243927D01*
X92123202Y-90233202D01*
X92133927Y-90223481D01*
X92145553Y-90214858D01*
X92157969Y-90207417D01*
X92171054Y-90201228D01*
X92184683Y-90196351D01*
X92198724Y-90192834D01*
X92213042Y-90190710D01*
X92227500Y-90190000D01*
X92572500Y-90190000D01*
X92586958Y-90190710D01*
X92586958Y-90190710D01*
G37*
D18*
X92400000Y-90485000D03*
G04 #@! TD*
D15*
G04 #@! TO.C,C8*
G36*
X118099505Y-87651204D02*
X118123773Y-87654804D01*
X118147572Y-87660765D01*
X118170671Y-87669030D01*
X118192850Y-87679520D01*
X118213893Y-87692132D01*
X118233599Y-87706747D01*
X118251777Y-87723223D01*
X118268253Y-87741401D01*
X118282868Y-87761107D01*
X118295480Y-87782150D01*
X118305970Y-87804329D01*
X118314235Y-87827428D01*
X118320196Y-87851227D01*
X118323796Y-87875495D01*
X118325000Y-87899999D01*
X118325000Y-88550001D01*
X118323796Y-88574505D01*
X118320196Y-88598773D01*
X118314235Y-88622572D01*
X118305970Y-88645671D01*
X118295480Y-88667850D01*
X118282868Y-88688893D01*
X118268253Y-88708599D01*
X118251777Y-88726777D01*
X118233599Y-88743253D01*
X118213893Y-88757868D01*
X118192850Y-88770480D01*
X118170671Y-88780970D01*
X118147572Y-88789235D01*
X118123773Y-88795196D01*
X118099505Y-88798796D01*
X118075001Y-88800000D01*
X117174999Y-88800000D01*
X117150495Y-88798796D01*
X117126227Y-88795196D01*
X117102428Y-88789235D01*
X117079329Y-88780970D01*
X117057150Y-88770480D01*
X117036107Y-88757868D01*
X117016401Y-88743253D01*
X116998223Y-88726777D01*
X116981747Y-88708599D01*
X116967132Y-88688893D01*
X116954520Y-88667850D01*
X116944030Y-88645671D01*
X116935765Y-88622572D01*
X116929804Y-88598773D01*
X116926204Y-88574505D01*
X116925000Y-88550001D01*
X116925000Y-87899999D01*
X116926204Y-87875495D01*
X116929804Y-87851227D01*
X116935765Y-87827428D01*
X116944030Y-87804329D01*
X116954520Y-87782150D01*
X116967132Y-87761107D01*
X116981747Y-87741401D01*
X116998223Y-87723223D01*
X117016401Y-87706747D01*
X117036107Y-87692132D01*
X117057150Y-87679520D01*
X117079329Y-87669030D01*
X117102428Y-87660765D01*
X117126227Y-87654804D01*
X117150495Y-87651204D01*
X117174999Y-87650000D01*
X118075001Y-87650000D01*
X118099505Y-87651204D01*
X118099505Y-87651204D01*
G37*
D17*
X117625000Y-88225000D03*
D15*
G36*
X118099505Y-85601204D02*
X118123773Y-85604804D01*
X118147572Y-85610765D01*
X118170671Y-85619030D01*
X118192850Y-85629520D01*
X118213893Y-85642132D01*
X118233599Y-85656747D01*
X118251777Y-85673223D01*
X118268253Y-85691401D01*
X118282868Y-85711107D01*
X118295480Y-85732150D01*
X118305970Y-85754329D01*
X118314235Y-85777428D01*
X118320196Y-85801227D01*
X118323796Y-85825495D01*
X118325000Y-85849999D01*
X118325000Y-86500001D01*
X118323796Y-86524505D01*
X118320196Y-86548773D01*
X118314235Y-86572572D01*
X118305970Y-86595671D01*
X118295480Y-86617850D01*
X118282868Y-86638893D01*
X118268253Y-86658599D01*
X118251777Y-86676777D01*
X118233599Y-86693253D01*
X118213893Y-86707868D01*
X118192850Y-86720480D01*
X118170671Y-86730970D01*
X118147572Y-86739235D01*
X118123773Y-86745196D01*
X118099505Y-86748796D01*
X118075001Y-86750000D01*
X117174999Y-86750000D01*
X117150495Y-86748796D01*
X117126227Y-86745196D01*
X117102428Y-86739235D01*
X117079329Y-86730970D01*
X117057150Y-86720480D01*
X117036107Y-86707868D01*
X117016401Y-86693253D01*
X116998223Y-86676777D01*
X116981747Y-86658599D01*
X116967132Y-86638893D01*
X116954520Y-86617850D01*
X116944030Y-86595671D01*
X116935765Y-86572572D01*
X116929804Y-86548773D01*
X116926204Y-86524505D01*
X116925000Y-86500001D01*
X116925000Y-85849999D01*
X116926204Y-85825495D01*
X116929804Y-85801227D01*
X116935765Y-85777428D01*
X116944030Y-85754329D01*
X116954520Y-85732150D01*
X116967132Y-85711107D01*
X116981747Y-85691401D01*
X116998223Y-85673223D01*
X117016401Y-85656747D01*
X117036107Y-85642132D01*
X117057150Y-85629520D01*
X117079329Y-85619030D01*
X117102428Y-85610765D01*
X117126227Y-85604804D01*
X117150495Y-85601204D01*
X117174999Y-85600000D01*
X118075001Y-85600000D01*
X118099505Y-85601204D01*
X118099505Y-85601204D01*
G37*
D17*
X117625000Y-86175000D03*
G04 #@! TD*
D15*
G04 #@! TO.C,C9*
G36*
X98019505Y-94921204D02*
X98043773Y-94924804D01*
X98067572Y-94930765D01*
X98090671Y-94939030D01*
X98112850Y-94949520D01*
X98133893Y-94962132D01*
X98153599Y-94976747D01*
X98171777Y-94993223D01*
X98188253Y-95011401D01*
X98202868Y-95031107D01*
X98215480Y-95052150D01*
X98225970Y-95074329D01*
X98234235Y-95097428D01*
X98240196Y-95121227D01*
X98243796Y-95145495D01*
X98245000Y-95169999D01*
X98245000Y-95820001D01*
X98243796Y-95844505D01*
X98240196Y-95868773D01*
X98234235Y-95892572D01*
X98225970Y-95915671D01*
X98215480Y-95937850D01*
X98202868Y-95958893D01*
X98188253Y-95978599D01*
X98171777Y-95996777D01*
X98153599Y-96013253D01*
X98133893Y-96027868D01*
X98112850Y-96040480D01*
X98090671Y-96050970D01*
X98067572Y-96059235D01*
X98043773Y-96065196D01*
X98019505Y-96068796D01*
X97995001Y-96070000D01*
X97094999Y-96070000D01*
X97070495Y-96068796D01*
X97046227Y-96065196D01*
X97022428Y-96059235D01*
X96999329Y-96050970D01*
X96977150Y-96040480D01*
X96956107Y-96027868D01*
X96936401Y-96013253D01*
X96918223Y-95996777D01*
X96901747Y-95978599D01*
X96887132Y-95958893D01*
X96874520Y-95937850D01*
X96864030Y-95915671D01*
X96855765Y-95892572D01*
X96849804Y-95868773D01*
X96846204Y-95844505D01*
X96845000Y-95820001D01*
X96845000Y-95169999D01*
X96846204Y-95145495D01*
X96849804Y-95121227D01*
X96855765Y-95097428D01*
X96864030Y-95074329D01*
X96874520Y-95052150D01*
X96887132Y-95031107D01*
X96901747Y-95011401D01*
X96918223Y-94993223D01*
X96936401Y-94976747D01*
X96956107Y-94962132D01*
X96977150Y-94949520D01*
X96999329Y-94939030D01*
X97022428Y-94930765D01*
X97046227Y-94924804D01*
X97070495Y-94921204D01*
X97094999Y-94920000D01*
X97995001Y-94920000D01*
X98019505Y-94921204D01*
X98019505Y-94921204D01*
G37*
D17*
X97545000Y-95495000D03*
D15*
G36*
X98019505Y-96971204D02*
X98043773Y-96974804D01*
X98067572Y-96980765D01*
X98090671Y-96989030D01*
X98112850Y-96999520D01*
X98133893Y-97012132D01*
X98153599Y-97026747D01*
X98171777Y-97043223D01*
X98188253Y-97061401D01*
X98202868Y-97081107D01*
X98215480Y-97102150D01*
X98225970Y-97124329D01*
X98234235Y-97147428D01*
X98240196Y-97171227D01*
X98243796Y-97195495D01*
X98245000Y-97219999D01*
X98245000Y-97870001D01*
X98243796Y-97894505D01*
X98240196Y-97918773D01*
X98234235Y-97942572D01*
X98225970Y-97965671D01*
X98215480Y-97987850D01*
X98202868Y-98008893D01*
X98188253Y-98028599D01*
X98171777Y-98046777D01*
X98153599Y-98063253D01*
X98133893Y-98077868D01*
X98112850Y-98090480D01*
X98090671Y-98100970D01*
X98067572Y-98109235D01*
X98043773Y-98115196D01*
X98019505Y-98118796D01*
X97995001Y-98120000D01*
X97094999Y-98120000D01*
X97070495Y-98118796D01*
X97046227Y-98115196D01*
X97022428Y-98109235D01*
X96999329Y-98100970D01*
X96977150Y-98090480D01*
X96956107Y-98077868D01*
X96936401Y-98063253D01*
X96918223Y-98046777D01*
X96901747Y-98028599D01*
X96887132Y-98008893D01*
X96874520Y-97987850D01*
X96864030Y-97965671D01*
X96855765Y-97942572D01*
X96849804Y-97918773D01*
X96846204Y-97894505D01*
X96845000Y-97870001D01*
X96845000Y-97219999D01*
X96846204Y-97195495D01*
X96849804Y-97171227D01*
X96855765Y-97147428D01*
X96864030Y-97124329D01*
X96874520Y-97102150D01*
X96887132Y-97081107D01*
X96901747Y-97061401D01*
X96918223Y-97043223D01*
X96936401Y-97026747D01*
X96956107Y-97012132D01*
X96977150Y-96999520D01*
X96999329Y-96989030D01*
X97022428Y-96980765D01*
X97046227Y-96974804D01*
X97070495Y-96971204D01*
X97094999Y-96970000D01*
X97995001Y-96970000D01*
X98019505Y-96971204D01*
X98019505Y-96971204D01*
G37*
D17*
X97545000Y-97545000D03*
G04 #@! TD*
D15*
G04 #@! TO.C,C10*
G36*
X94510779Y-100726144D02*
X94533834Y-100729563D01*
X94556443Y-100735227D01*
X94578387Y-100743079D01*
X94599457Y-100753044D01*
X94619448Y-100765026D01*
X94638168Y-100778910D01*
X94655438Y-100794562D01*
X94671090Y-100811832D01*
X94684974Y-100830552D01*
X94696956Y-100850543D01*
X94706921Y-100871613D01*
X94714773Y-100893557D01*
X94720437Y-100916166D01*
X94723856Y-100939221D01*
X94725000Y-100962500D01*
X94725000Y-101437500D01*
X94723856Y-101460779D01*
X94720437Y-101483834D01*
X94714773Y-101506443D01*
X94706921Y-101528387D01*
X94696956Y-101549457D01*
X94684974Y-101569448D01*
X94671090Y-101588168D01*
X94655438Y-101605438D01*
X94638168Y-101621090D01*
X94619448Y-101634974D01*
X94599457Y-101646956D01*
X94578387Y-101656921D01*
X94556443Y-101664773D01*
X94533834Y-101670437D01*
X94510779Y-101673856D01*
X94487500Y-101675000D01*
X93912500Y-101675000D01*
X93889221Y-101673856D01*
X93866166Y-101670437D01*
X93843557Y-101664773D01*
X93821613Y-101656921D01*
X93800543Y-101646956D01*
X93780552Y-101634974D01*
X93761832Y-101621090D01*
X93744562Y-101605438D01*
X93728910Y-101588168D01*
X93715026Y-101569448D01*
X93703044Y-101549457D01*
X93693079Y-101528387D01*
X93685227Y-101506443D01*
X93679563Y-101483834D01*
X93676144Y-101460779D01*
X93675000Y-101437500D01*
X93675000Y-100962500D01*
X93676144Y-100939221D01*
X93679563Y-100916166D01*
X93685227Y-100893557D01*
X93693079Y-100871613D01*
X93703044Y-100850543D01*
X93715026Y-100830552D01*
X93728910Y-100811832D01*
X93744562Y-100794562D01*
X93761832Y-100778910D01*
X93780552Y-100765026D01*
X93800543Y-100753044D01*
X93821613Y-100743079D01*
X93843557Y-100735227D01*
X93866166Y-100729563D01*
X93889221Y-100726144D01*
X93912500Y-100725000D01*
X94487500Y-100725000D01*
X94510779Y-100726144D01*
X94510779Y-100726144D01*
G37*
D16*
X94200000Y-101200000D03*
D15*
G36*
X96260779Y-100726144D02*
X96283834Y-100729563D01*
X96306443Y-100735227D01*
X96328387Y-100743079D01*
X96349457Y-100753044D01*
X96369448Y-100765026D01*
X96388168Y-100778910D01*
X96405438Y-100794562D01*
X96421090Y-100811832D01*
X96434974Y-100830552D01*
X96446956Y-100850543D01*
X96456921Y-100871613D01*
X96464773Y-100893557D01*
X96470437Y-100916166D01*
X96473856Y-100939221D01*
X96475000Y-100962500D01*
X96475000Y-101437500D01*
X96473856Y-101460779D01*
X96470437Y-101483834D01*
X96464773Y-101506443D01*
X96456921Y-101528387D01*
X96446956Y-101549457D01*
X96434974Y-101569448D01*
X96421090Y-101588168D01*
X96405438Y-101605438D01*
X96388168Y-101621090D01*
X96369448Y-101634974D01*
X96349457Y-101646956D01*
X96328387Y-101656921D01*
X96306443Y-101664773D01*
X96283834Y-101670437D01*
X96260779Y-101673856D01*
X96237500Y-101675000D01*
X95662500Y-101675000D01*
X95639221Y-101673856D01*
X95616166Y-101670437D01*
X95593557Y-101664773D01*
X95571613Y-101656921D01*
X95550543Y-101646956D01*
X95530552Y-101634974D01*
X95511832Y-101621090D01*
X95494562Y-101605438D01*
X95478910Y-101588168D01*
X95465026Y-101569448D01*
X95453044Y-101549457D01*
X95443079Y-101528387D01*
X95435227Y-101506443D01*
X95429563Y-101483834D01*
X95426144Y-101460779D01*
X95425000Y-101437500D01*
X95425000Y-100962500D01*
X95426144Y-100939221D01*
X95429563Y-100916166D01*
X95435227Y-100893557D01*
X95443079Y-100871613D01*
X95453044Y-100850543D01*
X95465026Y-100830552D01*
X95478910Y-100811832D01*
X95494562Y-100794562D01*
X95511832Y-100778910D01*
X95530552Y-100765026D01*
X95550543Y-100753044D01*
X95571613Y-100743079D01*
X95593557Y-100735227D01*
X95616166Y-100729563D01*
X95639221Y-100726144D01*
X95662500Y-100725000D01*
X96237500Y-100725000D01*
X96260779Y-100726144D01*
X96260779Y-100726144D01*
G37*
D16*
X95950000Y-101200000D03*
G04 #@! TD*
D15*
G04 #@! TO.C,C11*
G36*
X166474505Y-86626204D02*
X166498773Y-86629804D01*
X166522572Y-86635765D01*
X166545671Y-86644030D01*
X166567850Y-86654520D01*
X166588893Y-86667132D01*
X166608599Y-86681747D01*
X166626777Y-86698223D01*
X166643253Y-86716401D01*
X166657868Y-86736107D01*
X166670480Y-86757150D01*
X166680970Y-86779329D01*
X166689235Y-86802428D01*
X166695196Y-86826227D01*
X166698796Y-86850495D01*
X166700000Y-86874999D01*
X166700000Y-87525001D01*
X166698796Y-87549505D01*
X166695196Y-87573773D01*
X166689235Y-87597572D01*
X166680970Y-87620671D01*
X166670480Y-87642850D01*
X166657868Y-87663893D01*
X166643253Y-87683599D01*
X166626777Y-87701777D01*
X166608599Y-87718253D01*
X166588893Y-87732868D01*
X166567850Y-87745480D01*
X166545671Y-87755970D01*
X166522572Y-87764235D01*
X166498773Y-87770196D01*
X166474505Y-87773796D01*
X166450001Y-87775000D01*
X165549999Y-87775000D01*
X165525495Y-87773796D01*
X165501227Y-87770196D01*
X165477428Y-87764235D01*
X165454329Y-87755970D01*
X165432150Y-87745480D01*
X165411107Y-87732868D01*
X165391401Y-87718253D01*
X165373223Y-87701777D01*
X165356747Y-87683599D01*
X165342132Y-87663893D01*
X165329520Y-87642850D01*
X165319030Y-87620671D01*
X165310765Y-87597572D01*
X165304804Y-87573773D01*
X165301204Y-87549505D01*
X165300000Y-87525001D01*
X165300000Y-86874999D01*
X165301204Y-86850495D01*
X165304804Y-86826227D01*
X165310765Y-86802428D01*
X165319030Y-86779329D01*
X165329520Y-86757150D01*
X165342132Y-86736107D01*
X165356747Y-86716401D01*
X165373223Y-86698223D01*
X165391401Y-86681747D01*
X165411107Y-86667132D01*
X165432150Y-86654520D01*
X165454329Y-86644030D01*
X165477428Y-86635765D01*
X165501227Y-86629804D01*
X165525495Y-86626204D01*
X165549999Y-86625000D01*
X166450001Y-86625000D01*
X166474505Y-86626204D01*
X166474505Y-86626204D01*
G37*
D17*
X166000000Y-87200000D03*
D15*
G36*
X166474505Y-88676204D02*
X166498773Y-88679804D01*
X166522572Y-88685765D01*
X166545671Y-88694030D01*
X166567850Y-88704520D01*
X166588893Y-88717132D01*
X166608599Y-88731747D01*
X166626777Y-88748223D01*
X166643253Y-88766401D01*
X166657868Y-88786107D01*
X166670480Y-88807150D01*
X166680970Y-88829329D01*
X166689235Y-88852428D01*
X166695196Y-88876227D01*
X166698796Y-88900495D01*
X166700000Y-88924999D01*
X166700000Y-89575001D01*
X166698796Y-89599505D01*
X166695196Y-89623773D01*
X166689235Y-89647572D01*
X166680970Y-89670671D01*
X166670480Y-89692850D01*
X166657868Y-89713893D01*
X166643253Y-89733599D01*
X166626777Y-89751777D01*
X166608599Y-89768253D01*
X166588893Y-89782868D01*
X166567850Y-89795480D01*
X166545671Y-89805970D01*
X166522572Y-89814235D01*
X166498773Y-89820196D01*
X166474505Y-89823796D01*
X166450001Y-89825000D01*
X165549999Y-89825000D01*
X165525495Y-89823796D01*
X165501227Y-89820196D01*
X165477428Y-89814235D01*
X165454329Y-89805970D01*
X165432150Y-89795480D01*
X165411107Y-89782868D01*
X165391401Y-89768253D01*
X165373223Y-89751777D01*
X165356747Y-89733599D01*
X165342132Y-89713893D01*
X165329520Y-89692850D01*
X165319030Y-89670671D01*
X165310765Y-89647572D01*
X165304804Y-89623773D01*
X165301204Y-89599505D01*
X165300000Y-89575001D01*
X165300000Y-88924999D01*
X165301204Y-88900495D01*
X165304804Y-88876227D01*
X165310765Y-88852428D01*
X165319030Y-88829329D01*
X165329520Y-88807150D01*
X165342132Y-88786107D01*
X165356747Y-88766401D01*
X165373223Y-88748223D01*
X165391401Y-88731747D01*
X165411107Y-88717132D01*
X165432150Y-88704520D01*
X165454329Y-88694030D01*
X165477428Y-88685765D01*
X165501227Y-88679804D01*
X165525495Y-88676204D01*
X165549999Y-88675000D01*
X166450001Y-88675000D01*
X166474505Y-88676204D01*
X166474505Y-88676204D01*
G37*
D17*
X166000000Y-89250000D03*
G04 #@! TD*
D15*
G04 #@! TO.C,C12*
G36*
X164349505Y-100701204D02*
X164373773Y-100704804D01*
X164397572Y-100710765D01*
X164420671Y-100719030D01*
X164442850Y-100729520D01*
X164463893Y-100742132D01*
X164483599Y-100756747D01*
X164501777Y-100773223D01*
X164518253Y-100791401D01*
X164532868Y-100811107D01*
X164545480Y-100832150D01*
X164555970Y-100854329D01*
X164564235Y-100877428D01*
X164570196Y-100901227D01*
X164573796Y-100925495D01*
X164575000Y-100949999D01*
X164575000Y-101850001D01*
X164573796Y-101874505D01*
X164570196Y-101898773D01*
X164564235Y-101922572D01*
X164555970Y-101945671D01*
X164545480Y-101967850D01*
X164532868Y-101988893D01*
X164518253Y-102008599D01*
X164501777Y-102026777D01*
X164483599Y-102043253D01*
X164463893Y-102057868D01*
X164442850Y-102070480D01*
X164420671Y-102080970D01*
X164397572Y-102089235D01*
X164373773Y-102095196D01*
X164349505Y-102098796D01*
X164325001Y-102100000D01*
X163674999Y-102100000D01*
X163650495Y-102098796D01*
X163626227Y-102095196D01*
X163602428Y-102089235D01*
X163579329Y-102080970D01*
X163557150Y-102070480D01*
X163536107Y-102057868D01*
X163516401Y-102043253D01*
X163498223Y-102026777D01*
X163481747Y-102008599D01*
X163467132Y-101988893D01*
X163454520Y-101967850D01*
X163444030Y-101945671D01*
X163435765Y-101922572D01*
X163429804Y-101898773D01*
X163426204Y-101874505D01*
X163425000Y-101850001D01*
X163425000Y-100949999D01*
X163426204Y-100925495D01*
X163429804Y-100901227D01*
X163435765Y-100877428D01*
X163444030Y-100854329D01*
X163454520Y-100832150D01*
X163467132Y-100811107D01*
X163481747Y-100791401D01*
X163498223Y-100773223D01*
X163516401Y-100756747D01*
X163536107Y-100742132D01*
X163557150Y-100729520D01*
X163579329Y-100719030D01*
X163602428Y-100710765D01*
X163626227Y-100704804D01*
X163650495Y-100701204D01*
X163674999Y-100700000D01*
X164325001Y-100700000D01*
X164349505Y-100701204D01*
X164349505Y-100701204D01*
G37*
D17*
X164000000Y-101400000D03*
D15*
G36*
X166399505Y-100701204D02*
X166423773Y-100704804D01*
X166447572Y-100710765D01*
X166470671Y-100719030D01*
X166492850Y-100729520D01*
X166513893Y-100742132D01*
X166533599Y-100756747D01*
X166551777Y-100773223D01*
X166568253Y-100791401D01*
X166582868Y-100811107D01*
X166595480Y-100832150D01*
X166605970Y-100854329D01*
X166614235Y-100877428D01*
X166620196Y-100901227D01*
X166623796Y-100925495D01*
X166625000Y-100949999D01*
X166625000Y-101850001D01*
X166623796Y-101874505D01*
X166620196Y-101898773D01*
X166614235Y-101922572D01*
X166605970Y-101945671D01*
X166595480Y-101967850D01*
X166582868Y-101988893D01*
X166568253Y-102008599D01*
X166551777Y-102026777D01*
X166533599Y-102043253D01*
X166513893Y-102057868D01*
X166492850Y-102070480D01*
X166470671Y-102080970D01*
X166447572Y-102089235D01*
X166423773Y-102095196D01*
X166399505Y-102098796D01*
X166375001Y-102100000D01*
X165724999Y-102100000D01*
X165700495Y-102098796D01*
X165676227Y-102095196D01*
X165652428Y-102089235D01*
X165629329Y-102080970D01*
X165607150Y-102070480D01*
X165586107Y-102057868D01*
X165566401Y-102043253D01*
X165548223Y-102026777D01*
X165531747Y-102008599D01*
X165517132Y-101988893D01*
X165504520Y-101967850D01*
X165494030Y-101945671D01*
X165485765Y-101922572D01*
X165479804Y-101898773D01*
X165476204Y-101874505D01*
X165475000Y-101850001D01*
X165475000Y-100949999D01*
X165476204Y-100925495D01*
X165479804Y-100901227D01*
X165485765Y-100877428D01*
X165494030Y-100854329D01*
X165504520Y-100832150D01*
X165517132Y-100811107D01*
X165531747Y-100791401D01*
X165548223Y-100773223D01*
X165566401Y-100756747D01*
X165586107Y-100742132D01*
X165607150Y-100729520D01*
X165629329Y-100719030D01*
X165652428Y-100710765D01*
X165676227Y-100704804D01*
X165700495Y-100701204D01*
X165724999Y-100700000D01*
X166375001Y-100700000D01*
X166399505Y-100701204D01*
X166399505Y-100701204D01*
G37*
D17*
X166050000Y-101400000D03*
G04 #@! TD*
D15*
G04 #@! TO.C,C13*
G36*
X166399505Y-106701204D02*
X166423773Y-106704804D01*
X166447572Y-106710765D01*
X166470671Y-106719030D01*
X166492850Y-106729520D01*
X166513893Y-106742132D01*
X166533599Y-106756747D01*
X166551777Y-106773223D01*
X166568253Y-106791401D01*
X166582868Y-106811107D01*
X166595480Y-106832150D01*
X166605970Y-106854329D01*
X166614235Y-106877428D01*
X166620196Y-106901227D01*
X166623796Y-106925495D01*
X166625000Y-106949999D01*
X166625000Y-107850001D01*
X166623796Y-107874505D01*
X166620196Y-107898773D01*
X166614235Y-107922572D01*
X166605970Y-107945671D01*
X166595480Y-107967850D01*
X166582868Y-107988893D01*
X166568253Y-108008599D01*
X166551777Y-108026777D01*
X166533599Y-108043253D01*
X166513893Y-108057868D01*
X166492850Y-108070480D01*
X166470671Y-108080970D01*
X166447572Y-108089235D01*
X166423773Y-108095196D01*
X166399505Y-108098796D01*
X166375001Y-108100000D01*
X165724999Y-108100000D01*
X165700495Y-108098796D01*
X165676227Y-108095196D01*
X165652428Y-108089235D01*
X165629329Y-108080970D01*
X165607150Y-108070480D01*
X165586107Y-108057868D01*
X165566401Y-108043253D01*
X165548223Y-108026777D01*
X165531747Y-108008599D01*
X165517132Y-107988893D01*
X165504520Y-107967850D01*
X165494030Y-107945671D01*
X165485765Y-107922572D01*
X165479804Y-107898773D01*
X165476204Y-107874505D01*
X165475000Y-107850001D01*
X165475000Y-106949999D01*
X165476204Y-106925495D01*
X165479804Y-106901227D01*
X165485765Y-106877428D01*
X165494030Y-106854329D01*
X165504520Y-106832150D01*
X165517132Y-106811107D01*
X165531747Y-106791401D01*
X165548223Y-106773223D01*
X165566401Y-106756747D01*
X165586107Y-106742132D01*
X165607150Y-106729520D01*
X165629329Y-106719030D01*
X165652428Y-106710765D01*
X165676227Y-106704804D01*
X165700495Y-106701204D01*
X165724999Y-106700000D01*
X166375001Y-106700000D01*
X166399505Y-106701204D01*
X166399505Y-106701204D01*
G37*
D17*
X166050000Y-107400000D03*
D15*
G36*
X164349505Y-106701204D02*
X164373773Y-106704804D01*
X164397572Y-106710765D01*
X164420671Y-106719030D01*
X164442850Y-106729520D01*
X164463893Y-106742132D01*
X164483599Y-106756747D01*
X164501777Y-106773223D01*
X164518253Y-106791401D01*
X164532868Y-106811107D01*
X164545480Y-106832150D01*
X164555970Y-106854329D01*
X164564235Y-106877428D01*
X164570196Y-106901227D01*
X164573796Y-106925495D01*
X164575000Y-106949999D01*
X164575000Y-107850001D01*
X164573796Y-107874505D01*
X164570196Y-107898773D01*
X164564235Y-107922572D01*
X164555970Y-107945671D01*
X164545480Y-107967850D01*
X164532868Y-107988893D01*
X164518253Y-108008599D01*
X164501777Y-108026777D01*
X164483599Y-108043253D01*
X164463893Y-108057868D01*
X164442850Y-108070480D01*
X164420671Y-108080970D01*
X164397572Y-108089235D01*
X164373773Y-108095196D01*
X164349505Y-108098796D01*
X164325001Y-108100000D01*
X163674999Y-108100000D01*
X163650495Y-108098796D01*
X163626227Y-108095196D01*
X163602428Y-108089235D01*
X163579329Y-108080970D01*
X163557150Y-108070480D01*
X163536107Y-108057868D01*
X163516401Y-108043253D01*
X163498223Y-108026777D01*
X163481747Y-108008599D01*
X163467132Y-107988893D01*
X163454520Y-107967850D01*
X163444030Y-107945671D01*
X163435765Y-107922572D01*
X163429804Y-107898773D01*
X163426204Y-107874505D01*
X163425000Y-107850001D01*
X163425000Y-106949999D01*
X163426204Y-106925495D01*
X163429804Y-106901227D01*
X163435765Y-106877428D01*
X163444030Y-106854329D01*
X163454520Y-106832150D01*
X163467132Y-106811107D01*
X163481747Y-106791401D01*
X163498223Y-106773223D01*
X163516401Y-106756747D01*
X163536107Y-106742132D01*
X163557150Y-106729520D01*
X163579329Y-106719030D01*
X163602428Y-106710765D01*
X163626227Y-106704804D01*
X163650495Y-106701204D01*
X163674999Y-106700000D01*
X164325001Y-106700000D01*
X164349505Y-106701204D01*
X164349505Y-106701204D01*
G37*
D17*
X164000000Y-107400000D03*
G04 #@! TD*
D19*
G04 #@! TO.C,L1*
X144600000Y-83200000D03*
X144600000Y-93100000D03*
G04 #@! TD*
D15*
G04 #@! TO.C,R1*
G36*
X92986958Y-82335710D02*
X93001276Y-82337834D01*
X93015317Y-82341351D01*
X93028946Y-82346228D01*
X93042031Y-82352417D01*
X93054447Y-82359858D01*
X93066073Y-82368481D01*
X93076798Y-82378202D01*
X93086519Y-82388927D01*
X93095142Y-82400553D01*
X93102583Y-82412969D01*
X93108772Y-82426054D01*
X93113649Y-82439683D01*
X93117166Y-82453724D01*
X93119290Y-82468042D01*
X93120000Y-82482500D01*
X93120000Y-82777500D01*
X93119290Y-82791958D01*
X93117166Y-82806276D01*
X93113649Y-82820317D01*
X93108772Y-82833946D01*
X93102583Y-82847031D01*
X93095142Y-82859447D01*
X93086519Y-82871073D01*
X93076798Y-82881798D01*
X93066073Y-82891519D01*
X93054447Y-82900142D01*
X93042031Y-82907583D01*
X93028946Y-82913772D01*
X93015317Y-82918649D01*
X93001276Y-82922166D01*
X92986958Y-82924290D01*
X92972500Y-82925000D01*
X92627500Y-82925000D01*
X92613042Y-82924290D01*
X92598724Y-82922166D01*
X92584683Y-82918649D01*
X92571054Y-82913772D01*
X92557969Y-82907583D01*
X92545553Y-82900142D01*
X92533927Y-82891519D01*
X92523202Y-82881798D01*
X92513481Y-82871073D01*
X92504858Y-82859447D01*
X92497417Y-82847031D01*
X92491228Y-82833946D01*
X92486351Y-82820317D01*
X92482834Y-82806276D01*
X92480710Y-82791958D01*
X92480000Y-82777500D01*
X92480000Y-82482500D01*
X92480710Y-82468042D01*
X92482834Y-82453724D01*
X92486351Y-82439683D01*
X92491228Y-82426054D01*
X92497417Y-82412969D01*
X92504858Y-82400553D01*
X92513481Y-82388927D01*
X92523202Y-82378202D01*
X92533927Y-82368481D01*
X92545553Y-82359858D01*
X92557969Y-82352417D01*
X92571054Y-82346228D01*
X92584683Y-82341351D01*
X92598724Y-82337834D01*
X92613042Y-82335710D01*
X92627500Y-82335000D01*
X92972500Y-82335000D01*
X92986958Y-82335710D01*
X92986958Y-82335710D01*
G37*
D18*
X92800000Y-82630000D03*
D15*
G36*
X92986958Y-83305710D02*
X93001276Y-83307834D01*
X93015317Y-83311351D01*
X93028946Y-83316228D01*
X93042031Y-83322417D01*
X93054447Y-83329858D01*
X93066073Y-83338481D01*
X93076798Y-83348202D01*
X93086519Y-83358927D01*
X93095142Y-83370553D01*
X93102583Y-83382969D01*
X93108772Y-83396054D01*
X93113649Y-83409683D01*
X93117166Y-83423724D01*
X93119290Y-83438042D01*
X93120000Y-83452500D01*
X93120000Y-83747500D01*
X93119290Y-83761958D01*
X93117166Y-83776276D01*
X93113649Y-83790317D01*
X93108772Y-83803946D01*
X93102583Y-83817031D01*
X93095142Y-83829447D01*
X93086519Y-83841073D01*
X93076798Y-83851798D01*
X93066073Y-83861519D01*
X93054447Y-83870142D01*
X93042031Y-83877583D01*
X93028946Y-83883772D01*
X93015317Y-83888649D01*
X93001276Y-83892166D01*
X92986958Y-83894290D01*
X92972500Y-83895000D01*
X92627500Y-83895000D01*
X92613042Y-83894290D01*
X92598724Y-83892166D01*
X92584683Y-83888649D01*
X92571054Y-83883772D01*
X92557969Y-83877583D01*
X92545553Y-83870142D01*
X92533927Y-83861519D01*
X92523202Y-83851798D01*
X92513481Y-83841073D01*
X92504858Y-83829447D01*
X92497417Y-83817031D01*
X92491228Y-83803946D01*
X92486351Y-83790317D01*
X92482834Y-83776276D01*
X92480710Y-83761958D01*
X92480000Y-83747500D01*
X92480000Y-83452500D01*
X92480710Y-83438042D01*
X92482834Y-83423724D01*
X92486351Y-83409683D01*
X92491228Y-83396054D01*
X92497417Y-83382969D01*
X92504858Y-83370553D01*
X92513481Y-83358927D01*
X92523202Y-83348202D01*
X92533927Y-83338481D01*
X92545553Y-83329858D01*
X92557969Y-83322417D01*
X92571054Y-83316228D01*
X92584683Y-83311351D01*
X92598724Y-83307834D01*
X92613042Y-83305710D01*
X92627500Y-83305000D01*
X92972500Y-83305000D01*
X92986958Y-83305710D01*
X92986958Y-83305710D01*
G37*
D18*
X92800000Y-83600000D03*
G04 #@! TD*
D15*
G04 #@! TO.C,R2*
G36*
X89186958Y-89335710D02*
X89201276Y-89337834D01*
X89215317Y-89341351D01*
X89228946Y-89346228D01*
X89242031Y-89352417D01*
X89254447Y-89359858D01*
X89266073Y-89368481D01*
X89276798Y-89378202D01*
X89286519Y-89388927D01*
X89295142Y-89400553D01*
X89302583Y-89412969D01*
X89308772Y-89426054D01*
X89313649Y-89439683D01*
X89317166Y-89453724D01*
X89319290Y-89468042D01*
X89320000Y-89482500D01*
X89320000Y-89777500D01*
X89319290Y-89791958D01*
X89317166Y-89806276D01*
X89313649Y-89820317D01*
X89308772Y-89833946D01*
X89302583Y-89847031D01*
X89295142Y-89859447D01*
X89286519Y-89871073D01*
X89276798Y-89881798D01*
X89266073Y-89891519D01*
X89254447Y-89900142D01*
X89242031Y-89907583D01*
X89228946Y-89913772D01*
X89215317Y-89918649D01*
X89201276Y-89922166D01*
X89186958Y-89924290D01*
X89172500Y-89925000D01*
X88827500Y-89925000D01*
X88813042Y-89924290D01*
X88798724Y-89922166D01*
X88784683Y-89918649D01*
X88771054Y-89913772D01*
X88757969Y-89907583D01*
X88745553Y-89900142D01*
X88733927Y-89891519D01*
X88723202Y-89881798D01*
X88713481Y-89871073D01*
X88704858Y-89859447D01*
X88697417Y-89847031D01*
X88691228Y-89833946D01*
X88686351Y-89820317D01*
X88682834Y-89806276D01*
X88680710Y-89791958D01*
X88680000Y-89777500D01*
X88680000Y-89482500D01*
X88680710Y-89468042D01*
X88682834Y-89453724D01*
X88686351Y-89439683D01*
X88691228Y-89426054D01*
X88697417Y-89412969D01*
X88704858Y-89400553D01*
X88713481Y-89388927D01*
X88723202Y-89378202D01*
X88733927Y-89368481D01*
X88745553Y-89359858D01*
X88757969Y-89352417D01*
X88771054Y-89346228D01*
X88784683Y-89341351D01*
X88798724Y-89337834D01*
X88813042Y-89335710D01*
X88827500Y-89335000D01*
X89172500Y-89335000D01*
X89186958Y-89335710D01*
X89186958Y-89335710D01*
G37*
D18*
X89000000Y-89630000D03*
D15*
G36*
X89186958Y-90305710D02*
X89201276Y-90307834D01*
X89215317Y-90311351D01*
X89228946Y-90316228D01*
X89242031Y-90322417D01*
X89254447Y-90329858D01*
X89266073Y-90338481D01*
X89276798Y-90348202D01*
X89286519Y-90358927D01*
X89295142Y-90370553D01*
X89302583Y-90382969D01*
X89308772Y-90396054D01*
X89313649Y-90409683D01*
X89317166Y-90423724D01*
X89319290Y-90438042D01*
X89320000Y-90452500D01*
X89320000Y-90747500D01*
X89319290Y-90761958D01*
X89317166Y-90776276D01*
X89313649Y-90790317D01*
X89308772Y-90803946D01*
X89302583Y-90817031D01*
X89295142Y-90829447D01*
X89286519Y-90841073D01*
X89276798Y-90851798D01*
X89266073Y-90861519D01*
X89254447Y-90870142D01*
X89242031Y-90877583D01*
X89228946Y-90883772D01*
X89215317Y-90888649D01*
X89201276Y-90892166D01*
X89186958Y-90894290D01*
X89172500Y-90895000D01*
X88827500Y-90895000D01*
X88813042Y-90894290D01*
X88798724Y-90892166D01*
X88784683Y-90888649D01*
X88771054Y-90883772D01*
X88757969Y-90877583D01*
X88745553Y-90870142D01*
X88733927Y-90861519D01*
X88723202Y-90851798D01*
X88713481Y-90841073D01*
X88704858Y-90829447D01*
X88697417Y-90817031D01*
X88691228Y-90803946D01*
X88686351Y-90790317D01*
X88682834Y-90776276D01*
X88680710Y-90761958D01*
X88680000Y-90747500D01*
X88680000Y-90452500D01*
X88680710Y-90438042D01*
X88682834Y-90423724D01*
X88686351Y-90409683D01*
X88691228Y-90396054D01*
X88697417Y-90382969D01*
X88704858Y-90370553D01*
X88713481Y-90358927D01*
X88723202Y-90348202D01*
X88733927Y-90338481D01*
X88745553Y-90329858D01*
X88757969Y-90322417D01*
X88771054Y-90316228D01*
X88784683Y-90311351D01*
X88798724Y-90307834D01*
X88813042Y-90305710D01*
X88827500Y-90305000D01*
X89172500Y-90305000D01*
X89186958Y-90305710D01*
X89186958Y-90305710D01*
G37*
D18*
X89000000Y-90600000D03*
G04 #@! TD*
D15*
G04 #@! TO.C,R3*
G36*
X78386958Y-99105710D02*
X78401276Y-99107834D01*
X78415317Y-99111351D01*
X78428946Y-99116228D01*
X78442031Y-99122417D01*
X78454447Y-99129858D01*
X78466073Y-99138481D01*
X78476798Y-99148202D01*
X78486519Y-99158927D01*
X78495142Y-99170553D01*
X78502583Y-99182969D01*
X78508772Y-99196054D01*
X78513649Y-99209683D01*
X78517166Y-99223724D01*
X78519290Y-99238042D01*
X78520000Y-99252500D01*
X78520000Y-99547500D01*
X78519290Y-99561958D01*
X78517166Y-99576276D01*
X78513649Y-99590317D01*
X78508772Y-99603946D01*
X78502583Y-99617031D01*
X78495142Y-99629447D01*
X78486519Y-99641073D01*
X78476798Y-99651798D01*
X78466073Y-99661519D01*
X78454447Y-99670142D01*
X78442031Y-99677583D01*
X78428946Y-99683772D01*
X78415317Y-99688649D01*
X78401276Y-99692166D01*
X78386958Y-99694290D01*
X78372500Y-99695000D01*
X78027500Y-99695000D01*
X78013042Y-99694290D01*
X77998724Y-99692166D01*
X77984683Y-99688649D01*
X77971054Y-99683772D01*
X77957969Y-99677583D01*
X77945553Y-99670142D01*
X77933927Y-99661519D01*
X77923202Y-99651798D01*
X77913481Y-99641073D01*
X77904858Y-99629447D01*
X77897417Y-99617031D01*
X77891228Y-99603946D01*
X77886351Y-99590317D01*
X77882834Y-99576276D01*
X77880710Y-99561958D01*
X77880000Y-99547500D01*
X77880000Y-99252500D01*
X77880710Y-99238042D01*
X77882834Y-99223724D01*
X77886351Y-99209683D01*
X77891228Y-99196054D01*
X77897417Y-99182969D01*
X77904858Y-99170553D01*
X77913481Y-99158927D01*
X77923202Y-99148202D01*
X77933927Y-99138481D01*
X77945553Y-99129858D01*
X77957969Y-99122417D01*
X77971054Y-99116228D01*
X77984683Y-99111351D01*
X77998724Y-99107834D01*
X78013042Y-99105710D01*
X78027500Y-99105000D01*
X78372500Y-99105000D01*
X78386958Y-99105710D01*
X78386958Y-99105710D01*
G37*
D18*
X78200000Y-99400000D03*
D15*
G36*
X78386958Y-98135710D02*
X78401276Y-98137834D01*
X78415317Y-98141351D01*
X78428946Y-98146228D01*
X78442031Y-98152417D01*
X78454447Y-98159858D01*
X78466073Y-98168481D01*
X78476798Y-98178202D01*
X78486519Y-98188927D01*
X78495142Y-98200553D01*
X78502583Y-98212969D01*
X78508772Y-98226054D01*
X78513649Y-98239683D01*
X78517166Y-98253724D01*
X78519290Y-98268042D01*
X78520000Y-98282500D01*
X78520000Y-98577500D01*
X78519290Y-98591958D01*
X78517166Y-98606276D01*
X78513649Y-98620317D01*
X78508772Y-98633946D01*
X78502583Y-98647031D01*
X78495142Y-98659447D01*
X78486519Y-98671073D01*
X78476798Y-98681798D01*
X78466073Y-98691519D01*
X78454447Y-98700142D01*
X78442031Y-98707583D01*
X78428946Y-98713772D01*
X78415317Y-98718649D01*
X78401276Y-98722166D01*
X78386958Y-98724290D01*
X78372500Y-98725000D01*
X78027500Y-98725000D01*
X78013042Y-98724290D01*
X77998724Y-98722166D01*
X77984683Y-98718649D01*
X77971054Y-98713772D01*
X77957969Y-98707583D01*
X77945553Y-98700142D01*
X77933927Y-98691519D01*
X77923202Y-98681798D01*
X77913481Y-98671073D01*
X77904858Y-98659447D01*
X77897417Y-98647031D01*
X77891228Y-98633946D01*
X77886351Y-98620317D01*
X77882834Y-98606276D01*
X77880710Y-98591958D01*
X77880000Y-98577500D01*
X77880000Y-98282500D01*
X77880710Y-98268042D01*
X77882834Y-98253724D01*
X77886351Y-98239683D01*
X77891228Y-98226054D01*
X77897417Y-98212969D01*
X77904858Y-98200553D01*
X77913481Y-98188927D01*
X77923202Y-98178202D01*
X77933927Y-98168481D01*
X77945553Y-98159858D01*
X77957969Y-98152417D01*
X77971054Y-98146228D01*
X77984683Y-98141351D01*
X77998724Y-98137834D01*
X78013042Y-98135710D01*
X78027500Y-98135000D01*
X78372500Y-98135000D01*
X78386958Y-98135710D01*
X78386958Y-98135710D01*
G37*
D18*
X78200000Y-98430000D03*
G04 #@! TD*
D15*
G04 #@! TO.C,R4*
G36*
X97586958Y-92105710D02*
X97601276Y-92107834D01*
X97615317Y-92111351D01*
X97628946Y-92116228D01*
X97642031Y-92122417D01*
X97654447Y-92129858D01*
X97666073Y-92138481D01*
X97676798Y-92148202D01*
X97686519Y-92158927D01*
X97695142Y-92170553D01*
X97702583Y-92182969D01*
X97708772Y-92196054D01*
X97713649Y-92209683D01*
X97717166Y-92223724D01*
X97719290Y-92238042D01*
X97720000Y-92252500D01*
X97720000Y-92547500D01*
X97719290Y-92561958D01*
X97717166Y-92576276D01*
X97713649Y-92590317D01*
X97708772Y-92603946D01*
X97702583Y-92617031D01*
X97695142Y-92629447D01*
X97686519Y-92641073D01*
X97676798Y-92651798D01*
X97666073Y-92661519D01*
X97654447Y-92670142D01*
X97642031Y-92677583D01*
X97628946Y-92683772D01*
X97615317Y-92688649D01*
X97601276Y-92692166D01*
X97586958Y-92694290D01*
X97572500Y-92695000D01*
X97227500Y-92695000D01*
X97213042Y-92694290D01*
X97198724Y-92692166D01*
X97184683Y-92688649D01*
X97171054Y-92683772D01*
X97157969Y-92677583D01*
X97145553Y-92670142D01*
X97133927Y-92661519D01*
X97123202Y-92651798D01*
X97113481Y-92641073D01*
X97104858Y-92629447D01*
X97097417Y-92617031D01*
X97091228Y-92603946D01*
X97086351Y-92590317D01*
X97082834Y-92576276D01*
X97080710Y-92561958D01*
X97080000Y-92547500D01*
X97080000Y-92252500D01*
X97080710Y-92238042D01*
X97082834Y-92223724D01*
X97086351Y-92209683D01*
X97091228Y-92196054D01*
X97097417Y-92182969D01*
X97104858Y-92170553D01*
X97113481Y-92158927D01*
X97123202Y-92148202D01*
X97133927Y-92138481D01*
X97145553Y-92129858D01*
X97157969Y-92122417D01*
X97171054Y-92116228D01*
X97184683Y-92111351D01*
X97198724Y-92107834D01*
X97213042Y-92105710D01*
X97227500Y-92105000D01*
X97572500Y-92105000D01*
X97586958Y-92105710D01*
X97586958Y-92105710D01*
G37*
D18*
X97400000Y-92400000D03*
D15*
G36*
X97586958Y-91135710D02*
X97601276Y-91137834D01*
X97615317Y-91141351D01*
X97628946Y-91146228D01*
X97642031Y-91152417D01*
X97654447Y-91159858D01*
X97666073Y-91168481D01*
X97676798Y-91178202D01*
X97686519Y-91188927D01*
X97695142Y-91200553D01*
X97702583Y-91212969D01*
X97708772Y-91226054D01*
X97713649Y-91239683D01*
X97717166Y-91253724D01*
X97719290Y-91268042D01*
X97720000Y-91282500D01*
X97720000Y-91577500D01*
X97719290Y-91591958D01*
X97717166Y-91606276D01*
X97713649Y-91620317D01*
X97708772Y-91633946D01*
X97702583Y-91647031D01*
X97695142Y-91659447D01*
X97686519Y-91671073D01*
X97676798Y-91681798D01*
X97666073Y-91691519D01*
X97654447Y-91700142D01*
X97642031Y-91707583D01*
X97628946Y-91713772D01*
X97615317Y-91718649D01*
X97601276Y-91722166D01*
X97586958Y-91724290D01*
X97572500Y-91725000D01*
X97227500Y-91725000D01*
X97213042Y-91724290D01*
X97198724Y-91722166D01*
X97184683Y-91718649D01*
X97171054Y-91713772D01*
X97157969Y-91707583D01*
X97145553Y-91700142D01*
X97133927Y-91691519D01*
X97123202Y-91681798D01*
X97113481Y-91671073D01*
X97104858Y-91659447D01*
X97097417Y-91647031D01*
X97091228Y-91633946D01*
X97086351Y-91620317D01*
X97082834Y-91606276D01*
X97080710Y-91591958D01*
X97080000Y-91577500D01*
X97080000Y-91282500D01*
X97080710Y-91268042D01*
X97082834Y-91253724D01*
X97086351Y-91239683D01*
X97091228Y-91226054D01*
X97097417Y-91212969D01*
X97104858Y-91200553D01*
X97113481Y-91188927D01*
X97123202Y-91178202D01*
X97133927Y-91168481D01*
X97145553Y-91159858D01*
X97157969Y-91152417D01*
X97171054Y-91146228D01*
X97184683Y-91141351D01*
X97198724Y-91137834D01*
X97213042Y-91135710D01*
X97227500Y-91135000D01*
X97572500Y-91135000D01*
X97586958Y-91135710D01*
X97586958Y-91135710D01*
G37*
D18*
X97400000Y-91430000D03*
G04 #@! TD*
D15*
G04 #@! TO.C,R5*
G36*
X92186958Y-96220710D02*
X92201276Y-96222834D01*
X92215317Y-96226351D01*
X92228946Y-96231228D01*
X92242031Y-96237417D01*
X92254447Y-96244858D01*
X92266073Y-96253481D01*
X92276798Y-96263202D01*
X92286519Y-96273927D01*
X92295142Y-96285553D01*
X92302583Y-96297969D01*
X92308772Y-96311054D01*
X92313649Y-96324683D01*
X92317166Y-96338724D01*
X92319290Y-96353042D01*
X92320000Y-96367500D01*
X92320000Y-96662500D01*
X92319290Y-96676958D01*
X92317166Y-96691276D01*
X92313649Y-96705317D01*
X92308772Y-96718946D01*
X92302583Y-96732031D01*
X92295142Y-96744447D01*
X92286519Y-96756073D01*
X92276798Y-96766798D01*
X92266073Y-96776519D01*
X92254447Y-96785142D01*
X92242031Y-96792583D01*
X92228946Y-96798772D01*
X92215317Y-96803649D01*
X92201276Y-96807166D01*
X92186958Y-96809290D01*
X92172500Y-96810000D01*
X91827500Y-96810000D01*
X91813042Y-96809290D01*
X91798724Y-96807166D01*
X91784683Y-96803649D01*
X91771054Y-96798772D01*
X91757969Y-96792583D01*
X91745553Y-96785142D01*
X91733927Y-96776519D01*
X91723202Y-96766798D01*
X91713481Y-96756073D01*
X91704858Y-96744447D01*
X91697417Y-96732031D01*
X91691228Y-96718946D01*
X91686351Y-96705317D01*
X91682834Y-96691276D01*
X91680710Y-96676958D01*
X91680000Y-96662500D01*
X91680000Y-96367500D01*
X91680710Y-96353042D01*
X91682834Y-96338724D01*
X91686351Y-96324683D01*
X91691228Y-96311054D01*
X91697417Y-96297969D01*
X91704858Y-96285553D01*
X91713481Y-96273927D01*
X91723202Y-96263202D01*
X91733927Y-96253481D01*
X91745553Y-96244858D01*
X91757969Y-96237417D01*
X91771054Y-96231228D01*
X91784683Y-96226351D01*
X91798724Y-96222834D01*
X91813042Y-96220710D01*
X91827500Y-96220000D01*
X92172500Y-96220000D01*
X92186958Y-96220710D01*
X92186958Y-96220710D01*
G37*
D18*
X92000000Y-96515000D03*
D15*
G36*
X92186958Y-97190710D02*
X92201276Y-97192834D01*
X92215317Y-97196351D01*
X92228946Y-97201228D01*
X92242031Y-97207417D01*
X92254447Y-97214858D01*
X92266073Y-97223481D01*
X92276798Y-97233202D01*
X92286519Y-97243927D01*
X92295142Y-97255553D01*
X92302583Y-97267969D01*
X92308772Y-97281054D01*
X92313649Y-97294683D01*
X92317166Y-97308724D01*
X92319290Y-97323042D01*
X92320000Y-97337500D01*
X92320000Y-97632500D01*
X92319290Y-97646958D01*
X92317166Y-97661276D01*
X92313649Y-97675317D01*
X92308772Y-97688946D01*
X92302583Y-97702031D01*
X92295142Y-97714447D01*
X92286519Y-97726073D01*
X92276798Y-97736798D01*
X92266073Y-97746519D01*
X92254447Y-97755142D01*
X92242031Y-97762583D01*
X92228946Y-97768772D01*
X92215317Y-97773649D01*
X92201276Y-97777166D01*
X92186958Y-97779290D01*
X92172500Y-97780000D01*
X91827500Y-97780000D01*
X91813042Y-97779290D01*
X91798724Y-97777166D01*
X91784683Y-97773649D01*
X91771054Y-97768772D01*
X91757969Y-97762583D01*
X91745553Y-97755142D01*
X91733927Y-97746519D01*
X91723202Y-97736798D01*
X91713481Y-97726073D01*
X91704858Y-97714447D01*
X91697417Y-97702031D01*
X91691228Y-97688946D01*
X91686351Y-97675317D01*
X91682834Y-97661276D01*
X91680710Y-97646958D01*
X91680000Y-97632500D01*
X91680000Y-97337500D01*
X91680710Y-97323042D01*
X91682834Y-97308724D01*
X91686351Y-97294683D01*
X91691228Y-97281054D01*
X91697417Y-97267969D01*
X91704858Y-97255553D01*
X91713481Y-97243927D01*
X91723202Y-97233202D01*
X91733927Y-97223481D01*
X91745553Y-97214858D01*
X91757969Y-97207417D01*
X91771054Y-97201228D01*
X91784683Y-97196351D01*
X91798724Y-97192834D01*
X91813042Y-97190710D01*
X91827500Y-97190000D01*
X92172500Y-97190000D01*
X92186958Y-97190710D01*
X92186958Y-97190710D01*
G37*
D18*
X92000000Y-97485000D03*
G04 #@! TD*
D15*
G04 #@! TO.C,R6*
G36*
X131649504Y-100113704D02*
X131673773Y-100117304D01*
X131697571Y-100123265D01*
X131720671Y-100131530D01*
X131742849Y-100142020D01*
X131763893Y-100154633D01*
X131783598Y-100169247D01*
X131801777Y-100185723D01*
X131818253Y-100203902D01*
X131832867Y-100223607D01*
X131845480Y-100244651D01*
X131855970Y-100266829D01*
X131864235Y-100289929D01*
X131870196Y-100313727D01*
X131873796Y-100337996D01*
X131875000Y-100362500D01*
X131875000Y-101287500D01*
X131873796Y-101312004D01*
X131870196Y-101336273D01*
X131864235Y-101360071D01*
X131855970Y-101383171D01*
X131845480Y-101405349D01*
X131832867Y-101426393D01*
X131818253Y-101446098D01*
X131801777Y-101464277D01*
X131783598Y-101480753D01*
X131763893Y-101495367D01*
X131742849Y-101507980D01*
X131720671Y-101518470D01*
X131697571Y-101526735D01*
X131673773Y-101532696D01*
X131649504Y-101536296D01*
X131625000Y-101537500D01*
X130375000Y-101537500D01*
X130350496Y-101536296D01*
X130326227Y-101532696D01*
X130302429Y-101526735D01*
X130279329Y-101518470D01*
X130257151Y-101507980D01*
X130236107Y-101495367D01*
X130216402Y-101480753D01*
X130198223Y-101464277D01*
X130181747Y-101446098D01*
X130167133Y-101426393D01*
X130154520Y-101405349D01*
X130144030Y-101383171D01*
X130135765Y-101360071D01*
X130129804Y-101336273D01*
X130126204Y-101312004D01*
X130125000Y-101287500D01*
X130125000Y-100362500D01*
X130126204Y-100337996D01*
X130129804Y-100313727D01*
X130135765Y-100289929D01*
X130144030Y-100266829D01*
X130154520Y-100244651D01*
X130167133Y-100223607D01*
X130181747Y-100203902D01*
X130198223Y-100185723D01*
X130216402Y-100169247D01*
X130236107Y-100154633D01*
X130257151Y-100142020D01*
X130279329Y-100131530D01*
X130302429Y-100123265D01*
X130326227Y-100117304D01*
X130350496Y-100113704D01*
X130375000Y-100112500D01*
X131625000Y-100112500D01*
X131649504Y-100113704D01*
X131649504Y-100113704D01*
G37*
D20*
X131000000Y-100825000D03*
D15*
G36*
X131649504Y-103088704D02*
X131673773Y-103092304D01*
X131697571Y-103098265D01*
X131720671Y-103106530D01*
X131742849Y-103117020D01*
X131763893Y-103129633D01*
X131783598Y-103144247D01*
X131801777Y-103160723D01*
X131818253Y-103178902D01*
X131832867Y-103198607D01*
X131845480Y-103219651D01*
X131855970Y-103241829D01*
X131864235Y-103264929D01*
X131870196Y-103288727D01*
X131873796Y-103312996D01*
X131875000Y-103337500D01*
X131875000Y-104262500D01*
X131873796Y-104287004D01*
X131870196Y-104311273D01*
X131864235Y-104335071D01*
X131855970Y-104358171D01*
X131845480Y-104380349D01*
X131832867Y-104401393D01*
X131818253Y-104421098D01*
X131801777Y-104439277D01*
X131783598Y-104455753D01*
X131763893Y-104470367D01*
X131742849Y-104482980D01*
X131720671Y-104493470D01*
X131697571Y-104501735D01*
X131673773Y-104507696D01*
X131649504Y-104511296D01*
X131625000Y-104512500D01*
X130375000Y-104512500D01*
X130350496Y-104511296D01*
X130326227Y-104507696D01*
X130302429Y-104501735D01*
X130279329Y-104493470D01*
X130257151Y-104482980D01*
X130236107Y-104470367D01*
X130216402Y-104455753D01*
X130198223Y-104439277D01*
X130181747Y-104421098D01*
X130167133Y-104401393D01*
X130154520Y-104380349D01*
X130144030Y-104358171D01*
X130135765Y-104335071D01*
X130129804Y-104311273D01*
X130126204Y-104287004D01*
X130125000Y-104262500D01*
X130125000Y-103337500D01*
X130126204Y-103312996D01*
X130129804Y-103288727D01*
X130135765Y-103264929D01*
X130144030Y-103241829D01*
X130154520Y-103219651D01*
X130167133Y-103198607D01*
X130181747Y-103178902D01*
X130198223Y-103160723D01*
X130216402Y-103144247D01*
X130236107Y-103129633D01*
X130257151Y-103117020D01*
X130279329Y-103106530D01*
X130302429Y-103098265D01*
X130326227Y-103092304D01*
X130350496Y-103088704D01*
X130375000Y-103087500D01*
X131625000Y-103087500D01*
X131649504Y-103088704D01*
X131649504Y-103088704D01*
G37*
D20*
X131000000Y-103800000D03*
G04 #@! TD*
D15*
G04 #@! TO.C,R7*
G36*
X106131958Y-97280710D02*
X106146276Y-97282834D01*
X106160317Y-97286351D01*
X106173946Y-97291228D01*
X106187031Y-97297417D01*
X106199447Y-97304858D01*
X106211073Y-97313481D01*
X106221798Y-97323202D01*
X106231519Y-97333927D01*
X106240142Y-97345553D01*
X106247583Y-97357969D01*
X106253772Y-97371054D01*
X106258649Y-97384683D01*
X106262166Y-97398724D01*
X106264290Y-97413042D01*
X106265000Y-97427500D01*
X106265000Y-97772500D01*
X106264290Y-97786958D01*
X106262166Y-97801276D01*
X106258649Y-97815317D01*
X106253772Y-97828946D01*
X106247583Y-97842031D01*
X106240142Y-97854447D01*
X106231519Y-97866073D01*
X106221798Y-97876798D01*
X106211073Y-97886519D01*
X106199447Y-97895142D01*
X106187031Y-97902583D01*
X106173946Y-97908772D01*
X106160317Y-97913649D01*
X106146276Y-97917166D01*
X106131958Y-97919290D01*
X106117500Y-97920000D01*
X105822500Y-97920000D01*
X105808042Y-97919290D01*
X105793724Y-97917166D01*
X105779683Y-97913649D01*
X105766054Y-97908772D01*
X105752969Y-97902583D01*
X105740553Y-97895142D01*
X105728927Y-97886519D01*
X105718202Y-97876798D01*
X105708481Y-97866073D01*
X105699858Y-97854447D01*
X105692417Y-97842031D01*
X105686228Y-97828946D01*
X105681351Y-97815317D01*
X105677834Y-97801276D01*
X105675710Y-97786958D01*
X105675000Y-97772500D01*
X105675000Y-97427500D01*
X105675710Y-97413042D01*
X105677834Y-97398724D01*
X105681351Y-97384683D01*
X105686228Y-97371054D01*
X105692417Y-97357969D01*
X105699858Y-97345553D01*
X105708481Y-97333927D01*
X105718202Y-97323202D01*
X105728927Y-97313481D01*
X105740553Y-97304858D01*
X105752969Y-97297417D01*
X105766054Y-97291228D01*
X105779683Y-97286351D01*
X105793724Y-97282834D01*
X105808042Y-97280710D01*
X105822500Y-97280000D01*
X106117500Y-97280000D01*
X106131958Y-97280710D01*
X106131958Y-97280710D01*
G37*
D18*
X105970000Y-97600000D03*
D15*
G36*
X105161958Y-97280710D02*
X105176276Y-97282834D01*
X105190317Y-97286351D01*
X105203946Y-97291228D01*
X105217031Y-97297417D01*
X105229447Y-97304858D01*
X105241073Y-97313481D01*
X105251798Y-97323202D01*
X105261519Y-97333927D01*
X105270142Y-97345553D01*
X105277583Y-97357969D01*
X105283772Y-97371054D01*
X105288649Y-97384683D01*
X105292166Y-97398724D01*
X105294290Y-97413042D01*
X105295000Y-97427500D01*
X105295000Y-97772500D01*
X105294290Y-97786958D01*
X105292166Y-97801276D01*
X105288649Y-97815317D01*
X105283772Y-97828946D01*
X105277583Y-97842031D01*
X105270142Y-97854447D01*
X105261519Y-97866073D01*
X105251798Y-97876798D01*
X105241073Y-97886519D01*
X105229447Y-97895142D01*
X105217031Y-97902583D01*
X105203946Y-97908772D01*
X105190317Y-97913649D01*
X105176276Y-97917166D01*
X105161958Y-97919290D01*
X105147500Y-97920000D01*
X104852500Y-97920000D01*
X104838042Y-97919290D01*
X104823724Y-97917166D01*
X104809683Y-97913649D01*
X104796054Y-97908772D01*
X104782969Y-97902583D01*
X104770553Y-97895142D01*
X104758927Y-97886519D01*
X104748202Y-97876798D01*
X104738481Y-97866073D01*
X104729858Y-97854447D01*
X104722417Y-97842031D01*
X104716228Y-97828946D01*
X104711351Y-97815317D01*
X104707834Y-97801276D01*
X104705710Y-97786958D01*
X104705000Y-97772500D01*
X104705000Y-97427500D01*
X104705710Y-97413042D01*
X104707834Y-97398724D01*
X104711351Y-97384683D01*
X104716228Y-97371054D01*
X104722417Y-97357969D01*
X104729858Y-97345553D01*
X104738481Y-97333927D01*
X104748202Y-97323202D01*
X104758927Y-97313481D01*
X104770553Y-97304858D01*
X104782969Y-97297417D01*
X104796054Y-97291228D01*
X104809683Y-97286351D01*
X104823724Y-97282834D01*
X104838042Y-97280710D01*
X104852500Y-97280000D01*
X105147500Y-97280000D01*
X105161958Y-97280710D01*
X105161958Y-97280710D01*
G37*
D18*
X105000000Y-97600000D03*
G04 #@! TD*
D15*
G04 #@! TO.C,R8*
G36*
X105186958Y-101590710D02*
X105201276Y-101592834D01*
X105215317Y-101596351D01*
X105228946Y-101601228D01*
X105242031Y-101607417D01*
X105254447Y-101614858D01*
X105266073Y-101623481D01*
X105276798Y-101633202D01*
X105286519Y-101643927D01*
X105295142Y-101655553D01*
X105302583Y-101667969D01*
X105308772Y-101681054D01*
X105313649Y-101694683D01*
X105317166Y-101708724D01*
X105319290Y-101723042D01*
X105320000Y-101737500D01*
X105320000Y-102032500D01*
X105319290Y-102046958D01*
X105317166Y-102061276D01*
X105313649Y-102075317D01*
X105308772Y-102088946D01*
X105302583Y-102102031D01*
X105295142Y-102114447D01*
X105286519Y-102126073D01*
X105276798Y-102136798D01*
X105266073Y-102146519D01*
X105254447Y-102155142D01*
X105242031Y-102162583D01*
X105228946Y-102168772D01*
X105215317Y-102173649D01*
X105201276Y-102177166D01*
X105186958Y-102179290D01*
X105172500Y-102180000D01*
X104827500Y-102180000D01*
X104813042Y-102179290D01*
X104798724Y-102177166D01*
X104784683Y-102173649D01*
X104771054Y-102168772D01*
X104757969Y-102162583D01*
X104745553Y-102155142D01*
X104733927Y-102146519D01*
X104723202Y-102136798D01*
X104713481Y-102126073D01*
X104704858Y-102114447D01*
X104697417Y-102102031D01*
X104691228Y-102088946D01*
X104686351Y-102075317D01*
X104682834Y-102061276D01*
X104680710Y-102046958D01*
X104680000Y-102032500D01*
X104680000Y-101737500D01*
X104680710Y-101723042D01*
X104682834Y-101708724D01*
X104686351Y-101694683D01*
X104691228Y-101681054D01*
X104697417Y-101667969D01*
X104704858Y-101655553D01*
X104713481Y-101643927D01*
X104723202Y-101633202D01*
X104733927Y-101623481D01*
X104745553Y-101614858D01*
X104757969Y-101607417D01*
X104771054Y-101601228D01*
X104784683Y-101596351D01*
X104798724Y-101592834D01*
X104813042Y-101590710D01*
X104827500Y-101590000D01*
X105172500Y-101590000D01*
X105186958Y-101590710D01*
X105186958Y-101590710D01*
G37*
D18*
X105000000Y-101885000D03*
D15*
G36*
X105186958Y-100620710D02*
X105201276Y-100622834D01*
X105215317Y-100626351D01*
X105228946Y-100631228D01*
X105242031Y-100637417D01*
X105254447Y-100644858D01*
X105266073Y-100653481D01*
X105276798Y-100663202D01*
X105286519Y-100673927D01*
X105295142Y-100685553D01*
X105302583Y-100697969D01*
X105308772Y-100711054D01*
X105313649Y-100724683D01*
X105317166Y-100738724D01*
X105319290Y-100753042D01*
X105320000Y-100767500D01*
X105320000Y-101062500D01*
X105319290Y-101076958D01*
X105317166Y-101091276D01*
X105313649Y-101105317D01*
X105308772Y-101118946D01*
X105302583Y-101132031D01*
X105295142Y-101144447D01*
X105286519Y-101156073D01*
X105276798Y-101166798D01*
X105266073Y-101176519D01*
X105254447Y-101185142D01*
X105242031Y-101192583D01*
X105228946Y-101198772D01*
X105215317Y-101203649D01*
X105201276Y-101207166D01*
X105186958Y-101209290D01*
X105172500Y-101210000D01*
X104827500Y-101210000D01*
X104813042Y-101209290D01*
X104798724Y-101207166D01*
X104784683Y-101203649D01*
X104771054Y-101198772D01*
X104757969Y-101192583D01*
X104745553Y-101185142D01*
X104733927Y-101176519D01*
X104723202Y-101166798D01*
X104713481Y-101156073D01*
X104704858Y-101144447D01*
X104697417Y-101132031D01*
X104691228Y-101118946D01*
X104686351Y-101105317D01*
X104682834Y-101091276D01*
X104680710Y-101076958D01*
X104680000Y-101062500D01*
X104680000Y-100767500D01*
X104680710Y-100753042D01*
X104682834Y-100738724D01*
X104686351Y-100724683D01*
X104691228Y-100711054D01*
X104697417Y-100697969D01*
X104704858Y-100685553D01*
X104713481Y-100673927D01*
X104723202Y-100663202D01*
X104733927Y-100653481D01*
X104745553Y-100644858D01*
X104757969Y-100637417D01*
X104771054Y-100631228D01*
X104784683Y-100626351D01*
X104798724Y-100622834D01*
X104813042Y-100620710D01*
X104827500Y-100620000D01*
X105172500Y-100620000D01*
X105186958Y-100620710D01*
X105186958Y-100620710D01*
G37*
D18*
X105000000Y-100915000D03*
G04 #@! TD*
D21*
G04 #@! TO.C,U1*
X103905000Y-86625000D03*
X103905000Y-87275000D03*
X103905000Y-87925000D03*
X103905000Y-88575000D03*
X103905000Y-89225000D03*
X103905000Y-89875000D03*
X103905000Y-90525000D03*
X103905000Y-91175000D03*
X109455000Y-91175000D03*
X109455000Y-90525000D03*
X109455000Y-89875000D03*
X109455000Y-89225000D03*
X109455000Y-88575000D03*
X109455000Y-87925000D03*
X109455000Y-87275000D03*
X109455000Y-86625000D03*
D22*
X106130000Y-89450000D03*
X107230000Y-89450000D03*
X107230000Y-88350000D03*
D23*
X106130000Y-88350000D03*
D24*
X106130000Y-87575000D03*
X107230000Y-87575000D03*
X107230000Y-90225000D03*
X106130000Y-90225000D03*
D25*
X105355000Y-88350000D03*
X108005000Y-88350000D03*
X108005000Y-89450000D03*
X105355000Y-89450000D03*
G04 #@! TD*
M02*
