G04 #@! TF.GenerationSoftware,KiCad,Pcbnew,5.0.2-bee76a0~70~ubuntu18.04.1*
G04 #@! TF.CreationDate,2019-04-11T17:57:36-07:00*
G04 #@! TF.ProjectId,BuckBoostInverter,4275636b-426f-46f7-9374-496e76657274,rev?*
G04 #@! TF.SameCoordinates,Original*
G04 #@! TF.FileFunction,Copper,L2,Bot*
G04 #@! TF.FilePolarity,Positive*
%FSLAX46Y46*%
G04 Gerber Fmt 4.6, Leading zero omitted, Abs format (unit mm)*
G04 Created by KiCad (PCBNEW 5.0.2-bee76a0~70~ubuntu18.04.1) date Thu 11 Apr 2019 05:57:36 PM PDT*
%MOMM*%
%LPD*%
G01*
G04 APERTURE LIST*
G04 #@! TA.AperFunction,Conductor*
%ADD10R,3.400000X5.000000*%
G04 #@! TD*
G04 #@! TA.AperFunction,ViaPad*
%ADD11C,0.600000*%
G04 #@! TD*
G04 #@! TA.AperFunction,ViaPad*
%ADD12C,0.800000*%
G04 #@! TD*
G04 #@! TA.AperFunction,Conductor*
%ADD13C,0.250000*%
G04 #@! TD*
G04 #@! TA.AperFunction,Conductor*
%ADD14C,0.254000*%
G04 #@! TD*
G04 APERTURE END LIST*
D10*
G04 #@! TO.N,GND*
G04 #@! TO.C,U1*
X106680000Y-88900000D03*
D11*
X105580000Y-91100000D03*
X106680000Y-91100000D03*
X107780000Y-91100000D03*
X107780000Y-90000000D03*
X106680000Y-90000000D03*
X105580000Y-90000000D03*
X107780000Y-88900000D03*
X106680000Y-88900000D03*
X105580000Y-88900000D03*
X107780000Y-87800000D03*
X106680000Y-87800000D03*
X105580000Y-87800000D03*
X107780000Y-86700000D03*
X106680000Y-86700000D03*
X105580000Y-86700000D03*
G04 #@! TD*
D12*
G04 #@! TO.N,GND*
X88400000Y-74600000D03*
X84800000Y-78200000D03*
X81200000Y-74600000D03*
X84800000Y-71000000D03*
X164600000Y-112800000D03*
X168000000Y-116200000D03*
X161000000Y-116400000D03*
X167600000Y-107400000D03*
X167600000Y-101400000D03*
X111200000Y-91250000D03*
X107200000Y-97600000D03*
X99000000Y-82800000D03*
X103000000Y-84200000D03*
X144600000Y-95600000D03*
X140200000Y-93000000D03*
X144600000Y-90600000D03*
X148600000Y-93000000D03*
G04 #@! TO.N,Net-(C5-Pad1)*
X93600000Y-93400000D03*
X108200000Y-85400000D03*
G04 #@! TO.N,Net-(C6-Pad1)*
X94600000Y-90800000D03*
X90200000Y-92400000D03*
G04 #@! TO.N,Net-(Q1-Pad4)*
X133600000Y-84600000D03*
X115200000Y-88000000D03*
G04 #@! TD*
D13*
G04 #@! TO.N,GND*
X81765685Y-74600000D02*
X81200000Y-74600000D01*
X84800000Y-77634315D02*
X81765685Y-74600000D01*
X84800000Y-78200000D02*
X84800000Y-77634315D01*
X81200000Y-74600000D02*
X84800000Y-71000000D01*
X84800000Y-71000000D02*
X88400000Y-74600000D01*
X88400000Y-74600000D02*
X96600000Y-82800000D01*
X96600000Y-82800000D02*
X99000000Y-82800000D01*
X101600000Y-82800000D02*
X103000000Y-84200000D01*
X99000000Y-82800000D02*
X101600000Y-82800000D01*
X111200000Y-87326998D02*
X111200000Y-90684315D01*
X111200000Y-90684315D02*
X111200000Y-91250000D01*
X103000000Y-84200000D02*
X108073002Y-84200000D01*
X111200000Y-93600000D02*
X107200000Y-97600000D01*
X111200000Y-91250000D02*
X111200000Y-93600000D01*
X112950000Y-93000000D02*
X111200000Y-91250000D01*
X167600000Y-101400000D02*
X167600000Y-107400000D01*
X167600000Y-101400000D02*
X154800000Y-101400000D01*
X167600000Y-109800000D02*
X164600000Y-112800000D01*
X167600000Y-107400000D02*
X167600000Y-109800000D01*
X165165685Y-112800000D02*
X164600000Y-112800000D01*
X168000000Y-115634315D02*
X165165685Y-112800000D01*
X168000000Y-116200000D02*
X168000000Y-115634315D01*
X164600000Y-112800000D02*
X161000000Y-116400000D01*
X109053002Y-85726998D02*
X109600000Y-85726998D01*
X106680000Y-88900000D02*
X106680000Y-88100000D01*
X108073002Y-84200000D02*
X109600000Y-85726998D01*
X106680000Y-88100000D02*
X109053002Y-85726998D01*
X109600000Y-85726998D02*
X111200000Y-87326998D01*
X149000000Y-95600000D02*
X154800000Y-101400000D01*
X144600000Y-95600000D02*
X149000000Y-95600000D01*
X142800000Y-95600000D02*
X144600000Y-95600000D01*
X140200000Y-93000000D02*
X142800000Y-95600000D01*
X144600000Y-90600000D02*
X144600000Y-95600000D01*
X145165685Y-95600000D02*
X144600000Y-95600000D01*
X148600000Y-93565685D02*
X146565685Y-95600000D01*
X146565685Y-95600000D02*
X145165685Y-95600000D01*
X148600000Y-93000000D02*
X148600000Y-93565685D01*
X106680000Y-88900000D02*
X107780000Y-88900000D01*
X106680000Y-87800000D02*
X107780000Y-86700000D01*
X106680000Y-88900000D02*
X106680000Y-87800000D01*
X106680000Y-88900000D02*
X106680000Y-91100000D01*
X106680000Y-90000000D02*
X105580000Y-91100000D01*
X106680000Y-88900000D02*
X106680000Y-90000000D01*
X105580000Y-90000000D02*
X106680000Y-88900000D01*
X106680000Y-88900000D02*
X105580000Y-88900000D01*
X108850000Y-88900000D02*
X111200000Y-91250000D01*
X106680000Y-88900000D02*
X108850000Y-88900000D01*
G04 #@! TO.N,Net-(C5-Pad1)*
X93600000Y-93400000D02*
X101600000Y-85400000D01*
X101600000Y-85400000D02*
X108200000Y-85400000D01*
G04 #@! TO.N,Net-(C6-Pad1)*
X94200000Y-90800000D02*
X94600000Y-90800000D01*
X90200000Y-92400000D02*
X92600000Y-92400000D01*
X92600000Y-92400000D02*
X94200000Y-90800000D01*
G04 #@! TO.N,Net-(Q1-Pad4)*
X133600000Y-84034315D02*
X131365685Y-81800000D01*
X133600000Y-84600000D02*
X133600000Y-84034315D01*
X131365685Y-81800000D02*
X121400000Y-81800000D01*
X121400000Y-81800000D02*
X115200000Y-88000000D01*
G04 #@! TD*
D14*
G04 #@! TO.N,GND*
G36*
X169290001Y-119290000D02*
X70710000Y-119290000D01*
X70710000Y-92194126D01*
X89165000Y-92194126D01*
X89165000Y-92605874D01*
X89322569Y-92986280D01*
X89613720Y-93277431D01*
X89994126Y-93435000D01*
X90405874Y-93435000D01*
X90786280Y-93277431D01*
X90903711Y-93160000D01*
X92525153Y-93160000D01*
X92575026Y-93169920D01*
X92565000Y-93194126D01*
X92565000Y-93605874D01*
X92722569Y-93986280D01*
X93013720Y-94277431D01*
X93394126Y-94435000D01*
X93805874Y-94435000D01*
X94186280Y-94277431D01*
X94477431Y-93986280D01*
X94635000Y-93605874D01*
X94635000Y-93439801D01*
X101914803Y-86160000D01*
X104392092Y-86160000D01*
X104345000Y-86273690D01*
X104345000Y-88614250D01*
X104503750Y-88773000D01*
X104640841Y-88773000D01*
X104631637Y-88802927D01*
X104652840Y-89027000D01*
X104503750Y-89027000D01*
X104345000Y-89185750D01*
X104345000Y-91526310D01*
X104441673Y-91759699D01*
X104620302Y-91938327D01*
X104853691Y-92035000D01*
X105439475Y-92035000D01*
X105482927Y-92048363D01*
X105624147Y-92035000D01*
X106394250Y-92035000D01*
X106428407Y-92000843D01*
X106582927Y-92048363D01*
X106724145Y-92035000D01*
X106807002Y-92035000D01*
X106807002Y-92027159D01*
X106944864Y-92014114D01*
X106965750Y-92035000D01*
X107639475Y-92035000D01*
X107682927Y-92048363D01*
X107824147Y-92035000D01*
X108506309Y-92035000D01*
X108739698Y-91938327D01*
X108918327Y-91759699D01*
X109015000Y-91526310D01*
X109015000Y-89185750D01*
X108856250Y-89027000D01*
X108719159Y-89027000D01*
X108728363Y-88997073D01*
X108707160Y-88773000D01*
X108856250Y-88773000D01*
X109015000Y-88614250D01*
X109015000Y-87794126D01*
X114165000Y-87794126D01*
X114165000Y-88205874D01*
X114322569Y-88586280D01*
X114613720Y-88877431D01*
X114994126Y-89035000D01*
X115405874Y-89035000D01*
X115786280Y-88877431D01*
X116077431Y-88586280D01*
X116235000Y-88205874D01*
X116235000Y-88039801D01*
X121714802Y-82560000D01*
X131050884Y-82560000D01*
X132658728Y-84167845D01*
X132565000Y-84394126D01*
X132565000Y-84805874D01*
X132722569Y-85186280D01*
X133013720Y-85477431D01*
X133394126Y-85635000D01*
X133805874Y-85635000D01*
X134186280Y-85477431D01*
X134477431Y-85186280D01*
X134635000Y-84805874D01*
X134635000Y-84394126D01*
X134477431Y-84013720D01*
X134344314Y-83880603D01*
X134315904Y-83737778D01*
X134147929Y-83486386D01*
X134084473Y-83443986D01*
X131956016Y-81315530D01*
X131913614Y-81252071D01*
X131662222Y-81084096D01*
X131440537Y-81040000D01*
X131440532Y-81040000D01*
X131365685Y-81025112D01*
X131290838Y-81040000D01*
X121474846Y-81040000D01*
X121399999Y-81025112D01*
X121325152Y-81040000D01*
X121325148Y-81040000D01*
X121103463Y-81084096D01*
X120852071Y-81252071D01*
X120809671Y-81315527D01*
X115160199Y-86965000D01*
X114994126Y-86965000D01*
X114613720Y-87122569D01*
X114322569Y-87413720D01*
X114165000Y-87794126D01*
X109015000Y-87794126D01*
X109015000Y-86273690D01*
X108949105Y-86114606D01*
X109077431Y-85986280D01*
X109235000Y-85605874D01*
X109235000Y-85194126D01*
X109077431Y-84813720D01*
X108786280Y-84522569D01*
X108405874Y-84365000D01*
X107994126Y-84365000D01*
X107613720Y-84522569D01*
X107496289Y-84640000D01*
X101674846Y-84640000D01*
X101599999Y-84625112D01*
X101525152Y-84640000D01*
X101525148Y-84640000D01*
X101303463Y-84684096D01*
X101303461Y-84684097D01*
X101303462Y-84684097D01*
X101115526Y-84809671D01*
X101115524Y-84809673D01*
X101052071Y-84852071D01*
X101009673Y-84915524D01*
X95545982Y-90379217D01*
X95477431Y-90213720D01*
X95186280Y-89922569D01*
X94805874Y-89765000D01*
X94394126Y-89765000D01*
X94013720Y-89922569D01*
X93748952Y-90187337D01*
X93652071Y-90252071D01*
X93609671Y-90315527D01*
X92285199Y-91640000D01*
X90903711Y-91640000D01*
X90786280Y-91522569D01*
X90405874Y-91365000D01*
X89994126Y-91365000D01*
X89613720Y-91522569D01*
X89322569Y-91813720D01*
X89165000Y-92194126D01*
X70710000Y-92194126D01*
X70710000Y-70710000D01*
X169290000Y-70710000D01*
X169290001Y-119290000D01*
X169290001Y-119290000D01*
G37*
X169290001Y-119290000D02*
X70710000Y-119290000D01*
X70710000Y-92194126D01*
X89165000Y-92194126D01*
X89165000Y-92605874D01*
X89322569Y-92986280D01*
X89613720Y-93277431D01*
X89994126Y-93435000D01*
X90405874Y-93435000D01*
X90786280Y-93277431D01*
X90903711Y-93160000D01*
X92525153Y-93160000D01*
X92575026Y-93169920D01*
X92565000Y-93194126D01*
X92565000Y-93605874D01*
X92722569Y-93986280D01*
X93013720Y-94277431D01*
X93394126Y-94435000D01*
X93805874Y-94435000D01*
X94186280Y-94277431D01*
X94477431Y-93986280D01*
X94635000Y-93605874D01*
X94635000Y-93439801D01*
X101914803Y-86160000D01*
X104392092Y-86160000D01*
X104345000Y-86273690D01*
X104345000Y-88614250D01*
X104503750Y-88773000D01*
X104640841Y-88773000D01*
X104631637Y-88802927D01*
X104652840Y-89027000D01*
X104503750Y-89027000D01*
X104345000Y-89185750D01*
X104345000Y-91526310D01*
X104441673Y-91759699D01*
X104620302Y-91938327D01*
X104853691Y-92035000D01*
X105439475Y-92035000D01*
X105482927Y-92048363D01*
X105624147Y-92035000D01*
X106394250Y-92035000D01*
X106428407Y-92000843D01*
X106582927Y-92048363D01*
X106724145Y-92035000D01*
X106807002Y-92035000D01*
X106807002Y-92027159D01*
X106944864Y-92014114D01*
X106965750Y-92035000D01*
X107639475Y-92035000D01*
X107682927Y-92048363D01*
X107824147Y-92035000D01*
X108506309Y-92035000D01*
X108739698Y-91938327D01*
X108918327Y-91759699D01*
X109015000Y-91526310D01*
X109015000Y-89185750D01*
X108856250Y-89027000D01*
X108719159Y-89027000D01*
X108728363Y-88997073D01*
X108707160Y-88773000D01*
X108856250Y-88773000D01*
X109015000Y-88614250D01*
X109015000Y-87794126D01*
X114165000Y-87794126D01*
X114165000Y-88205874D01*
X114322569Y-88586280D01*
X114613720Y-88877431D01*
X114994126Y-89035000D01*
X115405874Y-89035000D01*
X115786280Y-88877431D01*
X116077431Y-88586280D01*
X116235000Y-88205874D01*
X116235000Y-88039801D01*
X121714802Y-82560000D01*
X131050884Y-82560000D01*
X132658728Y-84167845D01*
X132565000Y-84394126D01*
X132565000Y-84805874D01*
X132722569Y-85186280D01*
X133013720Y-85477431D01*
X133394126Y-85635000D01*
X133805874Y-85635000D01*
X134186280Y-85477431D01*
X134477431Y-85186280D01*
X134635000Y-84805874D01*
X134635000Y-84394126D01*
X134477431Y-84013720D01*
X134344314Y-83880603D01*
X134315904Y-83737778D01*
X134147929Y-83486386D01*
X134084473Y-83443986D01*
X131956016Y-81315530D01*
X131913614Y-81252071D01*
X131662222Y-81084096D01*
X131440537Y-81040000D01*
X131440532Y-81040000D01*
X131365685Y-81025112D01*
X131290838Y-81040000D01*
X121474846Y-81040000D01*
X121399999Y-81025112D01*
X121325152Y-81040000D01*
X121325148Y-81040000D01*
X121103463Y-81084096D01*
X120852071Y-81252071D01*
X120809671Y-81315527D01*
X115160199Y-86965000D01*
X114994126Y-86965000D01*
X114613720Y-87122569D01*
X114322569Y-87413720D01*
X114165000Y-87794126D01*
X109015000Y-87794126D01*
X109015000Y-86273690D01*
X108949105Y-86114606D01*
X109077431Y-85986280D01*
X109235000Y-85605874D01*
X109235000Y-85194126D01*
X109077431Y-84813720D01*
X108786280Y-84522569D01*
X108405874Y-84365000D01*
X107994126Y-84365000D01*
X107613720Y-84522569D01*
X107496289Y-84640000D01*
X101674846Y-84640000D01*
X101599999Y-84625112D01*
X101525152Y-84640000D01*
X101525148Y-84640000D01*
X101303463Y-84684096D01*
X101303461Y-84684097D01*
X101303462Y-84684097D01*
X101115526Y-84809671D01*
X101115524Y-84809673D01*
X101052071Y-84852071D01*
X101009673Y-84915524D01*
X95545982Y-90379217D01*
X95477431Y-90213720D01*
X95186280Y-89922569D01*
X94805874Y-89765000D01*
X94394126Y-89765000D01*
X94013720Y-89922569D01*
X93748952Y-90187337D01*
X93652071Y-90252071D01*
X93609671Y-90315527D01*
X92285199Y-91640000D01*
X90903711Y-91640000D01*
X90786280Y-91522569D01*
X90405874Y-91365000D01*
X89994126Y-91365000D01*
X89613720Y-91522569D01*
X89322569Y-91813720D01*
X89165000Y-92194126D01*
X70710000Y-92194126D01*
X70710000Y-70710000D01*
X169290000Y-70710000D01*
X169290001Y-119290000D01*
G36*
X106835903Y-88848013D02*
X106844891Y-88942999D01*
X106740890Y-89047000D01*
X106619110Y-89047000D01*
X106524097Y-88951987D01*
X106515109Y-88857001D01*
X106619110Y-88753000D01*
X106740890Y-88753000D01*
X106835903Y-88848013D01*
X106835903Y-88848013D01*
G37*
X106835903Y-88848013D02*
X106844891Y-88942999D01*
X106740890Y-89047000D01*
X106619110Y-89047000D01*
X106524097Y-88951987D01*
X106515109Y-88857001D01*
X106619110Y-88753000D01*
X106740890Y-88753000D01*
X106835903Y-88848013D01*
G36*
X107973748Y-88885858D02*
X107959605Y-88900000D01*
X107973748Y-88914143D01*
X107860890Y-89027000D01*
X107699110Y-89027000D01*
X107624097Y-88951987D01*
X107615109Y-88857001D01*
X107699110Y-88773000D01*
X107860890Y-88773000D01*
X107973748Y-88885858D01*
X107973748Y-88885858D01*
G37*
X107973748Y-88885858D02*
X107959605Y-88900000D01*
X107973748Y-88914143D01*
X107860890Y-89027000D01*
X107699110Y-89027000D01*
X107624097Y-88951987D01*
X107615109Y-88857001D01*
X107699110Y-88773000D01*
X107860890Y-88773000D01*
X107973748Y-88885858D01*
G36*
X105735903Y-88848013D02*
X105744891Y-88942999D01*
X105660890Y-89027000D01*
X105499110Y-89027000D01*
X105386253Y-88914143D01*
X105400395Y-88900000D01*
X105386253Y-88885858D01*
X105499110Y-88773000D01*
X105660890Y-88773000D01*
X105735903Y-88848013D01*
X105735903Y-88848013D01*
G37*
X105735903Y-88848013D02*
X105744891Y-88942999D01*
X105660890Y-89027000D01*
X105499110Y-89027000D01*
X105386253Y-88914143D01*
X105400395Y-88900000D01*
X105386253Y-88885858D01*
X105499110Y-88773000D01*
X105660890Y-88773000D01*
X105735903Y-88848013D01*
G04 #@! TD*
M02*
