M48
;DRILL file {KiCad 5.0.2-bee76a0~70~ubuntu18.04.1} date Thu 11 Apr 2019 05:57:28 PM PDT
;FORMAT={-:-/ absolute / inch / decimal}
FMAT,2
INCH,TZ
T1C0.0118
T2C0.0157
%
G90
G05
T1
X4.1567Y-3.4134
X4.1567Y-3.4567
X4.1567Y-3.5
X4.1567Y-3.5433
X4.1567Y-3.5866
X4.2Y-3.4134
X4.2Y-3.4567
X4.2Y-3.5
X4.2Y-3.5433
X4.2Y-3.5866
X4.2433Y-3.4134
X4.2433Y-3.4567
X4.2433Y-3.5
X4.2433Y-3.5433
X4.2433Y-3.5866
T2
X3.1969Y-2.937
X3.3386Y-2.7953
X3.3386Y-3.0787
X3.4803Y-2.937
X3.5512Y-3.6378
X3.685Y-3.6772
X3.7244Y-3.5748
X3.8976Y-3.2598
X4.0551Y-3.315
X4.2205Y-3.8425
X4.2598Y-3.3622
X4.378Y-3.5925
X4.5354Y-3.4646
X5.2598Y-3.3307
X5.5197Y-3.6614
X5.6929Y-3.5669
X5.6929Y-3.7638
X5.8504Y-3.6614
X6.3386Y-4.5827
X6.4803Y-4.4409
X6.5984Y-3.9921
X6.5984Y-4.2283
X6.6142Y-4.5748
T0
M30
